<?xml version="1.0" encoding="UTF-8" standalone="no"?>
<svg
   xmlns:dc="http://purl.org/dc/elements/1.1/"
   xmlns:cc="http://creativecommons.org/ns#"
   xmlns:rdf="http://www.w3.org/1999/02/22-rdf-syntax-ns#"
   xmlns:svg="http://www.w3.org/2000/svg"
   xmlns="http://www.w3.org/2000/svg"
   xmlns:sodipodi="http://sodipodi.sourceforge.net/DTD/sodipodi-0.dtd"
   xmlns:inkscape="http://www.inkscape.org/namespaces/inkscape"
   width="311"
   height="271"
   viewBox="0 0 311 271"
   version="1.1"
   id="svg736"
   sodipodi:docname="psych-homepage-server-services-illustration.svg"
   inkscape:version="0.92.3 (2405546, 2018-03-11)">
  <metadata
     id="metadata740">
    <rdf:RDF>
      <cc:Work
         rdf:about="">
        <dc:format>image/svg+xml</dc:format>
        <dc:type
           rdf:resource="http://purl.org/dc/dcmitype/StillImage" />
      </cc:Work>
    </rdf:RDF>
  </metadata>
  <sodipodi:namedview
     pagecolor="#ffffff"
     bordercolor="#666666"
     borderopacity="1"
     objecttolerance="10"
     gridtolerance="10"
     guidetolerance="10"
     inkscape:pageopacity="0"
     inkscape:pageshadow="2"
     inkscape:window-width="1920"
     inkscape:window-height="1001"
     id="namedview738"
     showgrid="false"
     inkscape:zoom="1.7416974"
     inkscape:cx="157.4584"
     inkscape:cy="57.72846"
     inkscape:window-x="-9"
     inkscape:window-y="-9"
     inkscape:window-maximized="1"
     inkscape:current-layer="svg736" />
  <defs
     id="defs528">
    <radialGradient
       id="a"
       cy="190.67152"
       r="125.9136"
       fx="132.29958"
       fy="190.67152"
       gradientTransform="matrix(1.0951915,0,0,0.66534795,42.112231,59.923718)"
       cx="132.29958"
       gradientUnits="userSpaceOnUse">
      <stop
         offset="2.558%"
         stop-color="#230581"
         id="stop2" />
      <stop
         offset="21.6%"
         stop-color="#231C8C"
         id="stop4" />
      <stop
         offset="54.84%"
         stop-color="#243F9C"
         id="stop6" />
      <stop
         offset="82.17%"
         stop-color="#2454A6"
         id="stop8" />
      <stop
         offset="100%"
         stop-color="#245CAA"
         id="stop10" />
    </radialGradient>
    <linearGradient
       id="b"
       x1="293.04382"
       x2="294.19633"
       y1="133.88347"
       y2="134.50556"
       gradientTransform="matrix(0.84070795,0,0,0.86674975,42.112231,59.923718)"
       gradientUnits="userSpaceOnUse">
      <stop
         offset="0%"
         stop-color="#230581"
         id="stop13" />
      <stop
         offset="23.74%"
         stop-color="#22057E"
         id="stop15" />
      <stop
         offset="40.85%"
         stop-color="#200575"
         id="stop17" />
      <stop
         offset="55.87%"
         stop-color="#1B0465"
         id="stop19" />
      <stop
         offset="56.68%"
         stop-color="#1B0464"
         id="stop21" />
      <stop
         offset="63.91%"
         stop-color="#19045C"
         id="stop23" />
      <stop
         offset="75.29%"
         stop-color="#130345"
         id="stop25" />
      <stop
         offset="89.33%"
         stop-color="#090121"
         id="stop27" />
      <stop
         offset="100%"
         id="stop29" />
    </linearGradient>
    <linearGradient
       id="c"
       x1="16.684936"
       x2="15.980001"
       y1="24.111798"
       y2="23.783301"
       gradientTransform="matrix(1.3497068,0,0,0.53988273,42.112231,59.923718)"
       gradientUnits="userSpaceOnUse">
      <stop
         offset="0%"
         stop-color="#03C6E4"
         id="stop32" />
      <stop
         offset="12.13%"
         stop-color="#00C6E3"
         id="stop34" />
      <stop
         offset="100%"
         stop-color="#46C1FD"
         id="stop36" />
    </linearGradient>
    <radialGradient
       id="d"
       cx="40.661504"
       cy="180.89244"
       r="62.316107"
       fx="40.661504"
       fy="180.89244"
       gradientTransform="scale(1.2559795,0.79619135)"
       gradientUnits="userSpaceOnUse">
      <stop
         offset="0%"
         stop-opacity=".098"
         id="stop39" />
      <stop
         offset="38.83%"
         stop-opacity=".471"
         id="stop41" />
      <stop
         offset="64.05%"
         stop-opacity=".304"
         id="stop43" />
      <stop
         offset="100%"
         stop-opacity="0"
         id="stop45" />
    </radialGradient>
    <radialGradient
       id="e"
       cx="94.02034"
       cy="165.09354"
       r="62.315868"
       fx="94.02034"
       fy="165.09354"
       gradientTransform="scale(1.2559747,0.79619441)"
       gradientUnits="userSpaceOnUse">
      <stop
         offset="0%"
         stop-opacity=".098"
         id="stop48" />
      <stop
         offset="38.83%"
         stop-opacity=".471"
         id="stop50" />
      <stop
         offset="64.05%"
         stop-opacity=".304"
         id="stop52" />
      <stop
         offset="100%"
         stop-opacity="0"
         id="stop54" />
    </radialGradient>
    <radialGradient
       id="f"
       cx="89.509654"
       cy="133.47051"
       r="86.73117"
       fx="89.509654"
       fy="133.47051"
       gradientTransform="scale(1.2954121,0.7719551)"
       gradientUnits="userSpaceOnUse">
      <stop
         offset="0%"
         stop-opacity=".098"
         id="stop57" />
      <stop
         offset="38.83%"
         stop-opacity=".471"
         id="stop59" />
      <stop
         offset="64.05%"
         stop-opacity=".304"
         id="stop61" />
      <stop
         offset="100%"
         stop-opacity="0"
         id="stop63" />
    </radialGradient>
    <linearGradient
       id="g"
       x1="22.164597"
       x2="71.041013"
       y1="1.6969737"
       y2="48.302189"
       gradientTransform="scale(1.3138598,0.76111623)"
       gradientUnits="userSpaceOnUse">
      <stop
         offset="0%"
         stop-color="#FFF"
         id="stop66" />
      <stop
         offset="2.099%"
         stop-color="#F3FEFE"
         id="stop68" />
      <stop
         offset="11.56%"
         stop-color="#C3FAFA"
         id="stop70" />
      <stop
         offset="21.57%"
         stop-color="#99F6F7"
         id="stop72" />
      <stop
         offset="31.95%"
         stop-color="#75F2F4"
         id="stop74" />
      <stop
         offset="42.81%"
         stop-color="#58F0F2"
         id="stop76" />
      <stop
         offset="54.32%"
         stop-color="#41EEF0"
         id="stop78" />
      <stop
         offset="66.77%"
         stop-color="#31ECEF"
         id="stop80" />
      <stop
         offset="80.84%"
         stop-color="#28EBEE"
         id="stop82" />
      <stop
         offset="100%"
         stop-color="#25EBEE"
         id="stop84" />
    </linearGradient>
    <linearGradient
       id="h"
       x1="141.153"
       x2="36.746133"
       y1="47.17064"
       y2="32.36827"
       gradientTransform="scale(0.52702956,1.8974268)"
       gradientUnits="userSpaceOnUse">
      <stop
         offset=".743%"
         stop-color="#245CAA"
         id="stop87" />
      <stop
         offset="20.37%"
         stop-color="#2764B2"
         id="stop89" />
      <stop
         offset="20.8%"
         stop-color="#2764B2"
         id="stop91" />
      <stop
         offset="41.21%"
         stop-color="#2B71BF"
         id="stop93" />
      <stop
         offset="78.8%"
         stop-color="#3793E0"
         id="stop95" />
      <stop
         offset="100%"
         stop-color="#3FA9F5"
         id="stop97" />
    </linearGradient>
    <linearGradient
       id="i"
       x1="191.95013"
       x2="80.946778"
       y1="31.772831"
       y2="48.969862"
       gradientTransform="scale(0.53062553,1.8845682)"
       gradientUnits="userSpaceOnUse">
      <stop
         offset="2.558%"
         stop-color="#230581"
         id="stop100" />
      <stop
         offset="25.31%"
         stop-color="#231488"
         id="stop102" />
      <stop
         offset="69.07%"
         stop-color="#243C9B"
         id="stop104" />
      <stop
         offset="100%"
         stop-color="#245CAA"
         id="stop106" />
    </linearGradient>
    <linearGradient
       id="j"
       x1="26.974666"
       x2="65.893685"
       y1="6.2144306"
       y2="43.28475"
       gradientTransform="scale(1.3131327,0.76153766)"
       gradientUnits="userSpaceOnUse">
      <stop
         offset=".743%"
         stop-color="#245CAA"
         id="stop109" />
      <stop
         offset="20.37%"
         stop-color="#2764B2"
         id="stop111" />
      <stop
         offset="20.8%"
         stop-color="#2764B2"
         id="stop113" />
      <stop
         offset="41.21%"
         stop-color="#2B71BF"
         id="stop115" />
      <stop
         offset="78.8%"
         stop-color="#3793E0"
         id="stop117" />
      <stop
         offset="100%"
         stop-color="#3FA9F5"
         id="stop119" />
    </linearGradient>
    <linearGradient
       id="k"
       x1="53.639516"
       x2="115.63419"
       y1="66.933063"
       y2="151.46324"
       gradientTransform="scale(1.3132202,0.76148694)"
       gradientUnits="userSpaceOnUse">
      <stop
         offset="0%"
         stop-color="#FFF"
         id="stop122" />
      <stop
         offset="2.099%"
         stop-color="#F3FEFE"
         id="stop124" />
      <stop
         offset="11.56%"
         stop-color="#C3FAFA"
         id="stop126" />
      <stop
         offset="21.57%"
         stop-color="#99F6F7"
         id="stop128" />
      <stop
         offset="31.95%"
         stop-color="#75F2F4"
         id="stop130" />
      <stop
         offset="42.81%"
         stop-color="#58F0F2"
         id="stop132" />
      <stop
         offset="54.32%"
         stop-color="#41EEF0"
         id="stop134" />
      <stop
         offset="66.77%"
         stop-color="#31ECEF"
         id="stop136" />
      <stop
         offset="80.84%"
         stop-color="#28EBEE"
         id="stop138" />
      <stop
         offset="100%"
         stop-color="#25EBEE"
         id="stop140" />
    </linearGradient>
    <linearGradient
       id="l"
       x1="131.58727"
       x2="198.02792"
       y1="95.71881"
       y2="76.379227"
       gradientTransform="scale(0.75209956,1.3296112)"
       gradientUnits="userSpaceOnUse">
      <stop
         offset=".743%"
         stop-color="#245CAA"
         id="stop143" />
      <stop
         offset="31.44%"
         stop-color="#243C9B"
         id="stop145" />
      <stop
         offset="74.87%"
         stop-color="#231488"
         id="stop147" />
      <stop
         offset="97.44%"
         stop-color="#230581"
         id="stop149" />
    </linearGradient>
    <linearGradient
       id="m"
       x1="72.024102"
       x2="153.71441"
       y1="72.959401"
       y2="103.4477"
       gradientTransform="scale(0.79859373,1.2522012)"
       gradientUnits="userSpaceOnUse">
      <stop
         offset="0%"
         stop-color="#3FA9F5"
         id="stop152" />
      <stop
         offset="21.54%"
         stop-color="#3793E0"
         id="stop154" />
      <stop
         offset="59.72%"
         stop-color="#2B71BF"
         id="stop156" />
      <stop
         offset="80.45%"
         stop-color="#2764B2"
         id="stop158" />
      <stop
         offset="80.85%"
         stop-color="#2764B2"
         id="stop160" />
      <stop
         offset="99.26%"
         stop-color="#245CAA"
         id="stop162" />
    </linearGradient>
    <linearGradient
       id="n"
       x1="58.833947"
       x2="109.60195"
       y1="73.931098"
       y2="143.07477"
       gradientTransform="scale(1.3124953,0.76190748)"
       gradientUnits="userSpaceOnUse">
      <stop
         offset=".743%"
         stop-color="#245CAA"
         id="stop165" />
      <stop
         offset="20.37%"
         stop-color="#2764B2"
         id="stop167" />
      <stop
         offset="20.8%"
         stop-color="#2764B2"
         id="stop169" />
      <stop
         offset="41.21%"
         stop-color="#2B71BF"
         id="stop171" />
      <stop
         offset="78.8%"
         stop-color="#3793E0"
         id="stop173" />
      <stop
         offset="100%"
         stop-color="#3FA9F5"
         id="stop175" />
    </linearGradient>
    <linearGradient
       id="o"
       x1="8.4614318"
       x2="46.916495"
       y1="98.824494"
       y2="141.84135"
       gradientTransform="scale(1.3149412,0.7604903)"
       gradientUnits="userSpaceOnUse">
      <stop
         offset="0%"
         stop-color="#FFF"
         id="stop178" />
      <stop
         offset="2.099%"
         stop-color="#F3FEFE"
         id="stop180" />
      <stop
         offset="11.56%"
         stop-color="#C3FAFA"
         id="stop182" />
      <stop
         offset="21.57%"
         stop-color="#99F6F7"
         id="stop184" />
      <stop
         offset="31.95%"
         stop-color="#75F2F4"
         id="stop186" />
      <stop
         offset="42.81%"
         stop-color="#58F0F2"
         id="stop188" />
      <stop
         offset="54.32%"
         stop-color="#41EEF0"
         id="stop190" />
      <stop
         offset="66.77%"
         stop-color="#31ECEF"
         id="stop192" />
      <stop
         offset="80.84%"
         stop-color="#28EBEE"
         id="stop194" />
      <stop
         offset="100%"
         stop-color="#25EBEE"
         id="stop196" />
    </linearGradient>
    <linearGradient
       id="p"
       x1="51.220199"
       x2="-8.6268966"
       y1="101.44415"
       y2="84.104054"
       gradientTransform="scale(0.75211348,1.3295866)"
       gradientUnits="userSpaceOnUse">
      <stop
         offset=".743%"
         stop-color="#245CAA"
         id="stop199" />
      <stop
         offset="20.37%"
         stop-color="#2764B2"
         id="stop201" />
      <stop
         offset="20.8%"
         stop-color="#2764B2"
         id="stop203" />
      <stop
         offset="41.21%"
         stop-color="#2B71BF"
         id="stop205" />
      <stop
         offset="78.8%"
         stop-color="#3793E0"
         id="stop207" />
      <stop
         offset="100%"
         stop-color="#3FA9F5"
         id="stop209" />
    </linearGradient>
    <linearGradient
       id="q"
       x1="92.992607"
       x2="19.207344"
       y1="88.481982"
       y2="116.83078"
       gradientTransform="scale(0.79834614,1.2525895)"
       gradientUnits="userSpaceOnUse">
      <stop
         offset="2.558%"
         stop-color="#230581"
         id="stop212" />
      <stop
         offset="25.13%"
         stop-color="#231488"
         id="stop214" />
      <stop
         offset="68.56%"
         stop-color="#243C9B"
         id="stop216" />
      <stop
         offset="99.26%"
         stop-color="#245CAA"
         id="stop218" />
    </linearGradient>
    <linearGradient
       id="r"
       x1="5.4785519"
       x2="52.354"
       y1="121.21432"
       y2="121.21432"
       gradientTransform="scale(1.3144047,0.7608007)"
       gradientUnits="userSpaceOnUse">
      <stop
         offset=".743%"
         stop-color="#245CAA"
         id="stop221" />
      <stop
         offset="20.37%"
         stop-color="#2764B2"
         id="stop223" />
      <stop
         offset="20.8%"
         stop-color="#2764B2"
         id="stop225" />
      <stop
         offset="41.21%"
         stop-color="#2B71BF"
         id="stop227" />
      <stop
         offset="78.8%"
         stop-color="#3793E0"
         id="stop229" />
      <stop
         offset="100%"
         stop-color="#3FA9F5"
         id="stop231" />
    </linearGradient>
    <linearGradient
       id="s"
       x1="24.442344"
       x2="34.130666"
       y1="20.23374"
       y2="20.23374"
       gradientTransform="scale(0.45207445,2.212025)"
       gradientUnits="userSpaceOnUse">
      <stop
         offset="1.073%"
         stop-color="#2493C4"
         id="stop234" />
      <stop
         offset="29.78%"
         stop-color="#2496C5"
         id="stop236" />
      <stop
         offset="49.19%"
         stop-color="#249FCA"
         id="stop238" />
      <stop
         offset="65.86%"
         stop-color="#24AED1"
         id="stop240" />
      <stop
         offset="80.97%"
         stop-color="#25C3DB"
         id="stop242" />
      <stop
         offset="94.91%"
         stop-color="#25DFE8"
         id="stop244" />
      <stop
         offset="100%"
         stop-color="#25EBEE"
         id="stop246" />
    </linearGradient>
    <linearGradient
       id="t"
       x1="12.24204"
       x2="23.323955"
       y1="20.16576"
       y2="20.16576"
       gradientTransform="scale(0.43948812,2.2753743)"
       gradientUnits="userSpaceOnUse">
      <stop
         offset="1.073%"
         stop-color="#2493C4"
         id="stop249" />
      <stop
         offset="29.78%"
         stop-color="#2496C5"
         id="stop251" />
      <stop
         offset="49.19%"
         stop-color="#249FCA"
         id="stop253" />
      <stop
         offset="65.86%"
         stop-color="#24AED1"
         id="stop255" />
      <stop
         offset="80.97%"
         stop-color="#25C3DB"
         id="stop257" />
      <stop
         offset="94.91%"
         stop-color="#25DFE8"
         id="stop259" />
      <stop
         offset="100%"
         stop-color="#25EBEE"
         id="stop261" />
    </linearGradient>
    <linearGradient
       id="u"
       x1="5.1073448"
       x2="23.530632"
       y1="18.428026"
       y2="18.428026"
       gradientTransform="scale(0.7529538,1.3281027)"
       gradientUnits="userSpaceOnUse">
      <stop
         offset="0%"
         stop-color="#230581"
         id="stop264" />
      <stop
         offset="41.4%"
         stop-color="#15034E"
         id="stop266" />
      <stop
         offset="100%"
         id="stop268" />
    </linearGradient>
    <linearGradient
       id="v"
       x1="2.6507222"
       x2="30.480705"
       y1="-5.6501291"
       y2="34.339654"
       gradientTransform="scale(1.3220006,0.75642932)"
       gradientUnits="userSpaceOnUse">
      <stop
         offset="0%"
         stop-color="#A642C9"
         id="stop271" />
      <stop
         offset="15.26%"
         stop-color="#A140C6"
         id="stop273" />
      <stop
         offset="33.38%"
         stop-color="#9339BE"
         id="stop275" />
      <stop
         offset="52.96%"
         stop-color="#7B2EB1"
         id="stop277" />
      <stop
         offset="73.57%"
         stop-color="#591E9F"
         id="stop279" />
      <stop
         offset="94.78%"
         stop-color="#2F0A87"
         id="stop281" />
      <stop
         offset="100%"
         stop-color="#230581"
         id="stop283" />
    </linearGradient>
    <linearGradient
       id="w"
       x1="-0.41336637"
       x2="30.352299"
       y1="17.269823"
       y2="42.540421"
       gradientTransform="scale(0.64673267,1.5462339)"
       gradientUnits="userSpaceOnUse">
      <stop
         offset="0%"
         stop-color="#230581"
         id="stop286" />
      <stop
         offset="16.7%"
         stop-color="#441493"
         id="stop288" />
      <stop
         offset="41.27%"
         stop-color="#6F28AB"
         id="stop290" />
      <stop
         offset="60.5%"
         stop-color="#8934BA"
         id="stop292" />
      <stop
         offset="71.88%"
         stop-color="#9339BF"
         id="stop294" />
      <stop
         offset="86.99%"
         stop-color="#A140C6"
         id="stop296" />
      <stop
         offset="100%"
         stop-color="#A642C9"
         id="stop298" />
    </linearGradient>
    <linearGradient
       id="x"
       x1="19.126898"
       x2="66.461962"
       y1="3.7890355"
       y2="60.132174"
       gradientTransform="scale(0.81960804,1.2200954)"
       gradientUnits="userSpaceOnUse">
      <stop
         offset="0%"
         stop-color="#A642C9"
         id="stop301" />
      <stop
         offset="14.21%"
         stop-color="#A03FC6"
         id="stop303" />
      <stop
         offset="33.24%"
         stop-color="#8F37BC"
         id="stop305" />
      <stop
         offset="55.01%"
         stop-color="#732AAD"
         id="stop307" />
      <stop
         offset="78.62%"
         stop-color="#4C1898"
         id="stop309" />
      <stop
         offset="100%"
         stop-color="#230581"
         id="stop311" />
    </linearGradient>
    <linearGradient
       id="y"
       x1="90.514178"
       x2="148.61971"
       y1="25.478327"
       y2="24.208674"
       gradientTransform="scale(0.48291981,2.0707372)"
       gradientUnits="userSpaceOnUse">
      <stop
         offset="0%"
         stop-color="#230581"
         id="stop314" />
      <stop
         offset="7.19%"
         stop-color="#3E1190"
         id="stop316" />
      <stop
         offset="17.63%"
         stop-color="#5E20A1"
         id="stop318" />
      <stop
         offset="28.98%"
         stop-color="#782DB0"
         id="stop320" />
      <stop
         offset="41.39%"
         stop-color="#8D36BB"
         id="stop322" />
      <stop
         offset="55.37%"
         stop-color="#9B3DC3"
         id="stop324" />
      <stop
         offset="72.26%"
         stop-color="#A341C8"
         id="stop326" />
      <stop
         offset="100%"
         stop-color="#A642C9"
         id="stop328" />
    </linearGradient>
    <linearGradient
       id="z"
       x1="32.140912"
       x2="53.524665"
       y1="60.402722"
       y2="59.469151"
       gradientTransform="scale(0.76343709,1.3098656)"
       gradientUnits="userSpaceOnUse">
      <stop
         offset="0%"
         stop-color="#230581"
         id="stop331" />
      <stop
         offset="7.19%"
         stop-color="#3E1190"
         id="stop333" />
      <stop
         offset="17.63%"
         stop-color="#5E20A1"
         id="stop335" />
      <stop
         offset="28.98%"
         stop-color="#782DB0"
         id="stop337" />
      <stop
         offset="41.39%"
         stop-color="#8D36BB"
         id="stop339" />
      <stop
         offset="55.37%"
         stop-color="#9B3DC3"
         id="stop341" />
      <stop
         offset="72.26%"
         stop-color="#A341C8"
         id="stop343" />
      <stop
         offset="100%"
         stop-color="#A642C9"
         id="stop345" />
    </linearGradient>
    <linearGradient
       id="A"
       x1="8.9537531"
       x2="30.991369"
       y1="88.586112"
       y2="88.586112"
       gradientTransform="scale(1.294304,0.77261599)"
       gradientUnits="userSpaceOnUse">
      <stop
         offset="0%"
         stop-color="#A642C9"
         id="stop348" />
      <stop
         offset="15.26%"
         stop-color="#A140C6"
         id="stop350" />
      <stop
         offset="33.38%"
         stop-color="#9339BE"
         id="stop352" />
      <stop
         offset="52.96%"
         stop-color="#7B2EB1"
         id="stop354" />
      <stop
         offset="73.57%"
         stop-color="#591E9F"
         id="stop356" />
      <stop
         offset="94.78%"
         stop-color="#2F0A87"
         id="stop358" />
      <stop
         offset="100%"
         stop-color="#230581"
         id="stop360" />
    </linearGradient>
    <linearGradient
       id="B"
       x1="7.3994784"
       x2="25.711024"
       y1="90.481643"
       y2="77.077441"
       gradientTransform="scale(1.1068039,0.90350246)"
       gradientUnits="userSpaceOnUse">
      <stop
         offset="0%"
         stop-color="#A642C9"
         id="stop363" />
      <stop
         offset="15.26%"
         stop-color="#A140C6"
         id="stop365" />
      <stop
         offset="33.38%"
         stop-color="#9339BE"
         id="stop367" />
      <stop
         offset="52.96%"
         stop-color="#7B2EB1"
         id="stop369" />
      <stop
         offset="73.57%"
         stop-color="#591E9F"
         id="stop371" />
      <stop
         offset="94.78%"
         stop-color="#2F0A87"
         id="stop373" />
      <stop
         offset="100%"
         stop-color="#230581"
         id="stop375" />
    </linearGradient>
    <linearGradient
       id="C"
       x1="35.020915"
       x2="41.122219"
       y1="49.643646"
       y2="49.643646"
       gradientTransform="scale(0.73813633,1.3547633)"
       gradientUnits="userSpaceOnUse">
      <stop
         offset="0%"
         stop-color="#A642C9"
         id="stop378" />
      <stop
         offset="15.26%"
         stop-color="#A140C6"
         id="stop380" />
      <stop
         offset="33.38%"
         stop-color="#9339BE"
         id="stop382" />
      <stop
         offset="52.96%"
         stop-color="#7B2EB1"
         id="stop384" />
      <stop
         offset="73.57%"
         stop-color="#591E9F"
         id="stop386" />
      <stop
         offset="94.78%"
         stop-color="#2F0A87"
         id="stop388" />
      <stop
         offset="100%"
         stop-color="#230581"
         id="stop390" />
    </linearGradient>
    <linearGradient
       id="D"
       x1="20.888373"
       x2="47.793994"
       y1="22.115343"
       y2="-23.065182"
       gradientTransform="scale(1.2183511,0.82078149)"
       gradientUnits="userSpaceOnUse">
      <stop
         offset="0%"
         stop-color="#A642C9"
         id="stop393" />
      <stop
         offset="27.74%"
         stop-color="#A341C8"
         id="stop395" />
      <stop
         offset="44.63%"
         stop-color="#9B3DC3"
         id="stop397" />
      <stop
         offset="58.61%"
         stop-color="#8D36BB"
         id="stop399" />
      <stop
         offset="71.02%"
         stop-color="#782DB0"
         id="stop401" />
      <stop
         offset="82.37%"
         stop-color="#5E20A1"
         id="stop403" />
      <stop
         offset="92.81%"
         stop-color="#3E1190"
         id="stop405" />
      <stop
         offset="100%"
         stop-color="#230581"
         id="stop407" />
    </linearGradient>
    <linearGradient
       id="E"
       x1="21.243541"
       x2="87.057363"
       y1="38.48846"
       y2="2.5465378"
       gradientTransform="scale(0.75345532,1.3272187)"
       gradientUnits="userSpaceOnUse">
      <stop
         offset="0%"
         stop-color="#A642C9"
         id="stop410" />
      <stop
         offset="19.68%"
         stop-color="#9238BE"
         id="stop412" />
      <stop
         offset="59.9%"
         stop-color="#5D20A1"
         id="stop414" />
      <stop
         offset="100%"
         stop-color="#230581"
         id="stop416" />
    </linearGradient>
    <linearGradient
       id="F"
       x1="0.084715419"
       x2="70.92936"
       y1="44.347043"
       y2="44.347043"
       gradientTransform="scale(0.75338434,1.3273438)"
       gradientUnits="userSpaceOnUse">
      <stop
         offset="0%"
         stop-color="#A642C9"
         id="stop419" />
      <stop
         offset="2.075%"
         stop-color="#993CC2"
         id="stop421" />
      <stop
         offset="7.992%"
         stop-color="#7A2DB1"
         id="stop423" />
      <stop
         offset="14.7%"
         stop-color="#5E21A2"
         id="stop425" />
      <stop
         offset="22.27%"
         stop-color="#481696"
         id="stop427" />
      <stop
         offset="31.11%"
         stop-color="#370F8C"
         id="stop429" />
      <stop
         offset="42.05%"
         stop-color="#2C0986"
         id="stop431" />
      <stop
         offset="57.4%"
         stop-color="#250682"
         id="stop433" />
      <stop
         offset="100%"
         stop-color="#230581"
         id="stop435" />
    </linearGradient>
    <linearGradient
       id="G"
       x1="58.019414"
       x2="1.8189549"
       y1="38.136188"
       y2="38.136188"
       gradientTransform="scale(0.84343209,1.1856319)"
       gradientUnits="userSpaceOnUse">
      <stop
         offset="0%"
         stop-color="#A642C9"
         id="stop438" />
      <stop
         offset="15.26%"
         stop-color="#A140C6"
         id="stop440" />
      <stop
         offset="33.38%"
         stop-color="#9339BE"
         id="stop442" />
      <stop
         offset="52.96%"
         stop-color="#7B2EB1"
         id="stop444" />
      <stop
         offset="73.57%"
         stop-color="#591E9F"
         id="stop446" />
      <stop
         offset="94.78%"
         stop-color="#2F0A87"
         id="stop448" />
      <stop
         offset="100%"
         stop-color="#230581"
         id="stop450" />
    </linearGradient>
    <linearGradient
       id="H"
       x1="56.895369"
       x2="-20.009303"
       y1="26.829147"
       y2="56.048935"
       gradientTransform="scale(0.81539577,1.2263983)"
       gradientUnits="userSpaceOnUse">
      <stop
         offset="0%"
         stop-color="#230581"
         id="stop453" />
      <stop
         offset="5.225%"
         stop-color="#2F0A87"
         id="stop455" />
      <stop
         offset="26.43%"
         stop-color="#591E9F"
         id="stop457" />
      <stop
         offset="47.04%"
         stop-color="#7B2EB1"
         id="stop459" />
      <stop
         offset="66.62%"
         stop-color="#9339BE"
         id="stop461" />
      <stop
         offset="84.74%"
         stop-color="#A140C6"
         id="stop463" />
      <stop
         offset="100%"
         stop-color="#A642C9"
         id="stop465" />
    </linearGradient>
    <linearGradient
       id="I"
       x1="59.898542"
       x2="32.77378"
       y1="5.125581"
       y2="15.746092"
       gradientTransform="scale(0.86209647,1.159963)"
       gradientUnits="userSpaceOnUse">
      <stop
         offset="0%"
         stop-color="#A642C9"
         id="stop468" />
      <stop
         offset="15.26%"
         stop-color="#A140C6"
         id="stop470" />
      <stop
         offset="33.38%"
         stop-color="#9339BE"
         id="stop472" />
      <stop
         offset="52.96%"
         stop-color="#7B2EB1"
         id="stop474" />
      <stop
         offset="73.57%"
         stop-color="#591E9F"
         id="stop476" />
      <stop
         offset="94.78%"
         stop-color="#2F0A87"
         id="stop478" />
      <stop
         offset="100%"
         stop-color="#230581"
         id="stop480" />
    </linearGradient>
    <linearGradient
       id="J"
       x1="13.310119"
       x2="0.14726376"
       y1="6.3624805"
       y2="6.3624805"
       gradientTransform="scale(0.8881919,1.1258828)"
       gradientUnits="userSpaceOnUse">
      <stop
         offset="0%"
         stop-color="#230581"
         id="stop483" />
      <stop
         offset="5.225%"
         stop-color="#2F0A87"
         id="stop485" />
      <stop
         offset="26.43%"
         stop-color="#591E9F"
         id="stop487" />
      <stop
         offset="47.04%"
         stop-color="#7B2EB1"
         id="stop489" />
      <stop
         offset="66.62%"
         stop-color="#9339BE"
         id="stop491" />
      <stop
         offset="84.74%"
         stop-color="#A140C6"
         id="stop493" />
      <stop
         offset="100%"
         stop-color="#A642C9"
         id="stop495" />
    </linearGradient>
    <linearGradient
       id="K"
       x1="6.2970833"
       x2="0.76465445"
       y1="16.027965"
       y2="16.027965"
       gradientTransform="scale(1.3070746,0.76506725)"
       gradientUnits="userSpaceOnUse">
      <stop
         offset="0%"
         stop-color="#230581"
         id="stop498" />
      <stop
         offset="5.225%"
         stop-color="#2F0A87"
         id="stop500" />
      <stop
         offset="26.43%"
         stop-color="#591E9F"
         id="stop502" />
      <stop
         offset="47.04%"
         stop-color="#7B2EB1"
         id="stop504" />
      <stop
         offset="66.62%"
         stop-color="#9339BE"
         id="stop506" />
      <stop
         offset="84.74%"
         stop-color="#A140C6"
         id="stop508" />
      <stop
         offset="100%"
         stop-color="#A642C9"
         id="stop510" />
    </linearGradient>
    <linearGradient
       id="L"
       x1="42.762422"
       x2="10.066954"
       y1="16.302163"
       y2="16.302163"
       gradientTransform="scale(0.90591283,1.103859)"
       gradientUnits="userSpaceOnUse">
      <stop
         offset="0%"
         stop-color="#A642C9"
         id="stop513" />
      <stop
         offset="15.26%"
         stop-color="#A140C6"
         id="stop515" />
      <stop
         offset="33.38%"
         stop-color="#9339BE"
         id="stop517" />
      <stop
         offset="52.96%"
         stop-color="#7B2EB1"
         id="stop519" />
      <stop
         offset="73.57%"
         stop-color="#591E9F"
         id="stop521" />
      <stop
         offset="94.78%"
         stop-color="#2F0A87"
         id="stop523" />
      <stop
         offset="100%"
         stop-color="#230581"
         id="stop525" />
    </linearGradient>
  </defs>
  <g
     id="g1821"
     transform="translate(-1.7224576,4.5932203)">
    <path
       d="M 189.74064,248.38805 288.40826,191.0011 184.83312,125.18028 85.60295,186.63307 Z"
       id="path530"
       style="opacity:0.27000002;fill:url(#a);fill-rule:nonzero;stroke-width:0.85362953"
       inkscape:connector-curvature="0" />
    <path
       d="m 288.9708,176.80524 c 0.71108,0 0.71108,-1.12936 0,-1.12936 -0.74948,0 -0.74948,1.12936 0,1.12936 z"
       id="path532"
       style="fill:url(#b);fill-rule:nonzero;stroke-width:0.85362953"
       inkscape:connector-curvature="0" />
    <path
       d="M 251.17379,104.99706 42.186497,227.30084 m 39.29513,-126.6718 81.250173,46.88048 M 81.481627,60.18749 V 100.1015 M 42.67392,186.14394 v 39.91401 M 251.47342,69.036214 V 104.3944"
       id="path534"
       inkscape:connector-curvature="0"
       style="fill:none;fill-rule:evenodd;stroke:#ef663a;stroke-width:1.28044438;stroke-linecap:round;stroke-linejoin:round;stroke-dasharray:1.70725911, 3.41451821" />
    <path
       d="m 64.625004,72.726454 v 0.341452"
       id="path536"
       style="fill:none;fill-rule:evenodd;stroke:url(#c);stroke-width:0.85362953"
       inkscape:connector-curvature="0" />
    <g
       transform="matrix(0.85362955,0,0,0.85362955,24.240643,17.242241)"
       id="g684"
       style="fill:none;fill-rule:evenodd">
      <path
         d="m 41.153,146.08 3.21,-1.886 a 1.711,1.711 0 0 1 1.714,0 l 4.705,2.763 c 1.099,0.659 1.099,2.238 0,2.94 l -24.05,14.476 c -0.528,0.307 -1.187,0.307 -1.759,0 l -5.1,-2.983 c -1.1,-0.658 -1.1,-2.281 0,-2.94 z"
         transform="translate(88.717,53)"
         id="path538"
         style="opacity:0.3;fill:url(#d);fill-rule:nonzero"
         inkscape:connector-curvature="0" />
      <path
         d="m 108.159,133.49 3.21,-1.886 a 1.711,1.711 0 0 1 1.714,0 l 4.704,2.763 c 1.1,0.658 1.1,2.238 0,2.94 l -24.05,14.476 c -0.527,0.307 -1.187,0.307 -1.758,0 l -5.1,-2.983 c -1.1,-0.658 -1.1,-2.281 0,-2.94 z"
         transform="translate(88.717,53)"
         id="path540"
         style="opacity:0.3;fill:url(#e);fill-rule:nonzero"
         inkscape:connector-curvature="0" />
      <path
         d="m 104.51,106.687 c 0,0 4.264,-2.632 5.583,-3.246 1.055,-0.483 2.99,-0.746 4.573,0 1.275,0.614 3.913,2.807 -0.264,5.264 -4.265,2.5 -34.25,19.784 -34.25,19.784 0,0 -2.638,1.097 -4.66,1.097 -2.639,0 -4.705,-2.895 -2.639,-4.43 2.155,-1.668 31.656,-18.47 31.656,-18.47 z"
         transform="translate(88.717,53)"
         id="path542"
         style="opacity:0.25;fill:url(#f);fill-rule:nonzero"
         inkscape:connector-curvature="0" />
      <path
         d="m 157.745,164.205 v -36.454 m -21.28,12.897 v -30.093"
         id="path544"
         inkscape:connector-curvature="0"
         style="stroke:#ef663a;stroke-width:2;stroke-linecap:round;stroke-linejoin:round;stroke-dasharray:8, 8" />
      <g
         id="g548"
         style="fill:#25ebee;fill-rule:nonzero">
        <path
           d="m 156.602,104.545 c 0,0.263 -0.176,0.526 -0.396,0.658 -0.22,0.131 -0.395,0.044 -0.395,-0.22 0,-0.263 0.175,-0.526 0.395,-0.658 0.22,-0.131 0.396,0 0.396,0.22 z m 1.495,-0.878 c 0,0.264 -0.176,0.527 -0.396,0.658 -0.22,0.132 -0.396,0.044 -0.396,-0.219 0,-0.263 0.176,-0.526 0.396,-0.658 0.22,-0.132 0.396,0 0.396,0.22 z m 1.495,-0.877 c 0,0.263 -0.176,0.526 -0.396,0.658 -0.22,0.132 -0.396,0.044 -0.396,-0.22 0,-0.262 0.176,-0.526 0.396,-0.657 0.22,-0.132 0.396,0 0.396,0.22 z m 1.495,-0.877 c 0,0.263 -0.176,0.526 -0.396,0.658 -0.22,0.131 -0.396,0.044 -0.396,-0.22 0,-0.263 0.176,-0.526 0.396,-0.658 0.22,-0.131 0.396,0 0.396,0.22 z m 1.494,-0.878 c 0,0.264 -0.175,0.527 -0.395,0.658 -0.22,0.132 -0.396,0.044 -0.396,-0.219 0,-0.263 0.176,-0.526 0.396,-0.658 0.22,-0.132 0.395,0 0.395,0.22 z m 1.495,-0.877 c 0,0.263 -0.176,0.526 -0.395,0.658 -0.22,0.132 -0.396,0.044 -0.396,-0.22 0,-0.263 0.176,-0.526 0.396,-0.657 0.263,-0.132 0.395,0 0.395,0.219 z m 1.539,-0.878 c 0,0.264 -0.176,0.527 -0.395,0.659 -0.22,0.131 -0.396,0.044 -0.396,-0.22 0,-0.263 0.176,-0.526 0.396,-0.658 0.22,-0.131 0.395,0 0.395,0.22 z m -10.376,7.414 c 0,0.264 -0.176,0.527 -0.396,0.658 -0.22,0.132 -0.395,0.044 -0.395,-0.219 0,-0.263 0.175,-0.526 0.395,-0.658 0.22,-0.132 0.396,-0.044 0.396,0.22 z m 1.363,0.614 c 0,0.264 -0.176,0.527 -0.396,0.658 -0.22,0.132 -0.395,0.044 -0.395,-0.219 0,-0.263 0.175,-0.526 0.395,-0.658 0.22,-0.131 0.396,-0.044 0.396,0.22 z m 1.495,-0.877 c 0,0.263 -0.176,0.527 -0.396,0.658 -0.22,0.132 -0.396,0.044 -0.396,-0.22 0,-0.262 0.176,-0.526 0.396,-0.657 0.22,-0.132 0.396,-0.044 0.396,0.22 z m 1.539,-0.877 c 0,0.263 -0.176,0.526 -0.396,0.658 -0.22,0.131 -0.396,0.044 -0.396,-0.22 0,-0.263 0.176,-0.526 0.396,-0.658 0.22,-0.131 0.396,-0.043 0.396,0.22 z m 1.494,-0.878 c 0,0.264 -0.175,0.527 -0.395,0.658 -0.22,0.132 -0.396,0.044 -0.396,-0.219 0,-0.263 0.176,-0.526 0.396,-0.658 0.22,-0.132 0.396,-0.044 0.396,0.22 z m 1.495,-0.877 c 0,0.263 -0.175,0.526 -0.395,0.658 -0.22,0.132 -0.396,0.044 -0.396,-0.22 0,-0.262 0.176,-0.526 0.396,-0.657 0.22,-0.132 0.395,-0.044 0.395,0.219 z m 1.495,-0.877 c 0,0.263 -0.176,0.526 -0.395,0.658 -0.22,0.131 -0.396,0.044 -0.396,-0.22 0,-0.263 0.176,-0.526 0.396,-0.658 0.22,-0.131 0.395,-0.044 0.395,0.22 z m 1.495,-0.878 c 0,0.264 -0.176,0.527 -0.395,0.658 -0.22,0.132 -0.396,0.044 -0.396,-0.219 0,-0.263 0.176,-0.526 0.396,-0.658 0.22,-0.132 0.395,-0.044 0.395,0.22 z m -9.013,3.905 c 0,0.263 -0.176,0.526 -0.396,0.658 -0.22,0.131 -0.395,0.043 -0.395,-0.22 0,-0.263 0.175,-0.526 0.395,-0.658 0.22,-0.131 0.396,-0.044 0.396,0.22 z m 1.495,-0.878 c 0,0.263 -0.176,0.527 -0.396,0.658 -0.22,0.132 -0.396,0.044 -0.396,-0.22 0,-0.262 0.176,-0.526 0.396,-0.657 0.22,-0.132 0.396,-0.044 0.396,0.22 z m 1.539,-0.877 c 0,0.263 -0.176,0.526 -0.396,0.658 -0.22,0.131 -0.396,0.044 -0.396,-0.22 0,-0.263 0.176,-0.526 0.396,-0.657 0.22,-0.132 0.396,-0.044 0.396,0.219 z m 1.494,-0.878 c 0,0.264 -0.175,0.527 -0.395,0.659 -0.22,0.131 -0.396,0.043 -0.396,-0.22 0,-0.263 0.176,-0.526 0.396,-0.658 0.22,-0.131 0.396,-0.044 0.396,0.22 z m 1.495,-0.876 c 0,0.262 -0.175,0.526 -0.395,0.657 -0.22,0.132 -0.396,0.044 -0.396,-0.22 0,-0.262 0.176,-0.526 0.396,-0.657 0.22,-0.132 0.395,-0.044 0.395,0.22 z m 1.495,-0.878 c 0,0.263 -0.176,0.526 -0.395,0.658 -0.22,0.131 -0.396,0.044 -0.396,-0.22 0,-0.263 0.176,-0.526 0.396,-0.658 0.22,-0.131 0.395,-0.043 0.395,0.22 z m 1.495,-0.878 c 0,0.264 -0.176,0.527 -0.395,0.658 -0.22,0.132 -0.396,0.044 -0.396,-0.219 0,-0.263 0.176,-0.526 0.396,-0.658 0.22,-0.132 0.395,-0.044 0.395,0.22 z m 1.495,-0.877 c 0,0.263 -0.176,0.526 -0.396,0.658 -0.22,0.132 -0.395,0.044 -0.395,-0.22 0,-0.262 0.176,-0.526 0.395,-0.657 0.22,-0.132 0.396,-0.044 0.396,0.22 z"
           id="path546"
           inkscape:connector-curvature="0" />
      </g>
      <path
         d="M 60.19,36.235 91.056,18.468 59.443,0.22 28.886,17.81 Z"
         transform="translate(88.717,53)"
         id="path550"
         style="fill:url(#g);fill-rule:nonzero;stroke:#ffffff;stroke-width:0.5"
         inkscape:connector-curvature="0" />
      <path
         d="M 28.886,112.477 59.179,130.112 59.795,35.972 28.886,17.898 Z"
         transform="translate(88.717,53)"
         id="path552"
         style="fill:url(#h);fill-rule:nonzero;stroke:#ffffff;stroke-width:0.5;stroke-linecap:round"
         inkscape:connector-curvature="0" />
      <path
         d="M 59.487,130.814 90.924,112.477 V 18.25 L 59.839,36.191 Z"
         transform="translate(88.717,53)"
         id="path554"
         style="fill:url(#i);fill-rule:nonzero;stroke:#ffffff;stroke-width:0.5;stroke-linecap:round"
         inkscape:connector-curvature="0" />
      <g
         id="g558"
         style="fill:#25ebee;fill-rule:nonzero">
        <path
           d="m 167.374,82.61 c 0,0.264 -0.176,0.527 -0.396,0.659 -0.22,0.131 -0.396,0.044 -0.396,-0.22 0,-0.263 0.176,-0.526 0.396,-0.658 0.22,-0.131 0.396,0 0.396,0.22 z m 1.539,-0.877 c 0,0.264 -0.176,0.527 -0.396,0.658 -0.22,0.132 -0.396,0.044 -0.396,-0.219 0,-0.263 0.176,-0.526 0.396,-0.658 0.22,-0.131 0.396,0 0.396,0.22 z m 1.495,-0.877 c 0,0.263 -0.176,0.527 -0.396,0.658 -0.22,0.132 -0.396,0.044 -0.396,-0.22 0,-0.262 0.176,-0.526 0.396,-0.657 0.22,-0.132 0.396,0 0.396,0.22 z m 1.494,-0.877 c 0,0.263 -0.175,0.526 -0.395,0.658 -0.22,0.131 -0.396,0.044 -0.396,-0.22 0,-0.263 0.176,-0.526 0.396,-0.658 0.22,-0.131 0.395,0 0.395,0.22 z m 1.495,-0.878 c 0,0.264 -0.176,0.527 -0.395,0.658 -0.22,0.132 -0.396,0.044 -0.396,-0.219 0,-0.263 0.176,-0.526 0.396,-0.658 0.22,-0.132 0.395,0 0.395,0.22 z m 1.495,-0.877 c 0,0.263 -0.176,0.526 -0.395,0.658 -0.22,0.132 -0.396,0.044 -0.396,-0.22 0,-0.262 0.176,-0.526 0.396,-0.657 0.22,-0.132 0.395,0 0.395,0.219 z m 1.495,-0.877 c 0,0.263 -0.176,0.526 -0.396,0.658 -0.22,0.131 -0.395,0.044 -0.395,-0.22 0,-0.263 0.176,-0.526 0.395,-0.658 0.264,-0.131 0.396,0 0.396,0.22 z m -10.332,7.413 c 0,0.264 -0.176,0.527 -0.396,0.658 -0.22,0.132 -0.396,0.044 -0.396,-0.219 0,-0.263 0.176,-0.526 0.396,-0.658 0.22,-0.132 0.396,-0.044 0.396,0.22 z m 1.363,0.615 c 0,0.263 -0.176,0.526 -0.396,0.658 -0.22,0.131 -0.396,0.043 -0.396,-0.22 0,-0.263 0.176,-0.526 0.396,-0.658 0.22,-0.131 0.396,-0.044 0.396,0.22 z m 1.495,-0.878 c 0,0.263 -0.176,0.527 -0.396,0.658 -0.22,0.132 -0.396,0.044 -0.396,-0.22 0,-0.262 0.176,-0.526 0.396,-0.657 0.22,-0.132 0.396,-0.044 0.396,0.22 z m 1.495,-0.877 c 0,0.263 -0.176,0.526 -0.396,0.658 -0.22,0.131 -0.396,0.044 -0.396,-0.22 0,-0.263 0.176,-0.526 0.396,-0.658 0.22,-0.131 0.396,-0.043 0.396,0.22 z m 1.538,-0.878 c 0,0.264 -0.175,0.527 -0.395,0.658 -0.22,0.132 -0.396,0.044 -0.396,-0.219 0,-0.263 0.176,-0.526 0.396,-0.658 0.22,-0.132 0.395,-0.044 0.395,0.22 z m 1.495,-0.877 c 0,0.263 -0.176,0.526 -0.395,0.658 -0.22,0.132 -0.396,0.044 -0.396,-0.22 0,-0.262 0.176,-0.526 0.396,-0.657 0.22,-0.132 0.395,-0.044 0.395,0.22 z m 1.495,-0.877 c 0,0.263 -0.176,0.526 -0.396,0.658 -0.22,0.131 -0.395,0.044 -0.395,-0.22 0,-0.263 0.176,-0.526 0.395,-0.658 0.22,-0.131 0.396,-0.043 0.396,0.22 z m 1.495,-0.878 c 0,0.264 -0.176,0.527 -0.396,0.658 -0.22,0.132 -0.395,0.044 -0.395,-0.219 0,-0.263 0.176,-0.526 0.395,-0.658 0.22,-0.132 0.396,-0.044 0.396,0.22 z m -9.013,3.905 c 0,0.263 -0.176,0.526 -0.396,0.658 -0.22,0.131 -0.396,0.043 -0.396,-0.22 0,-0.263 0.176,-0.526 0.396,-0.658 0.22,-0.131 0.396,-0.044 0.396,0.22 z m 1.495,-0.878 c 0,0.263 -0.176,0.527 -0.396,0.658 -0.22,0.132 -0.396,0.044 -0.396,-0.22 0,-0.262 0.176,-0.525 0.396,-0.657 0.22,-0.132 0.396,-0.044 0.396,0.22 z m 1.495,-0.877 c 0,0.263 -0.176,0.526 -0.396,0.658 -0.22,0.132 -0.396,0.044 -0.396,-0.22 0,-0.263 0.176,-0.526 0.396,-0.657 0.22,-0.132 0.396,-0.044 0.396,0.219 z m 1.538,-0.877 c 0,0.263 -0.175,0.526 -0.395,0.658 -0.22,0.131 -0.396,0.043 -0.396,-0.22 0,-0.263 0.176,-0.526 0.396,-0.658 0.22,-0.131 0.395,-0.044 0.395,0.22 z m 1.495,-0.878 c 0,0.263 -0.176,0.527 -0.395,0.658 -0.22,0.132 -0.396,0.044 -0.396,-0.22 0,-0.262 0.176,-0.526 0.396,-0.657 0.22,-0.132 0.395,-0.044 0.395,0.22 z m 1.495,-0.877 c 0,0.263 -0.176,0.526 -0.396,0.658 -0.22,0.131 -0.395,0.044 -0.395,-0.22 0,-0.263 0.176,-0.526 0.395,-0.658 0.22,-0.131 0.396,-0.043 0.396,0.22 z m 1.495,-0.878 c 0,0.264 -0.176,0.527 -0.396,0.658 -0.22,0.132 -0.395,0.044 -0.395,-0.219 0,-0.263 0.176,-0.526 0.395,-0.658 0.22,-0.131 0.396,-0.044 0.396,0.22 z m 1.495,-0.877 c 0,0.263 -0.176,0.527 -0.396,0.658 -0.22,0.132 -0.395,0.044 -0.395,-0.22 0,-0.262 0.175,-0.526 0.395,-0.657 0.22,-0.132 0.396,-0.044 0.396,0.22 z"
           id="path556"
           inkscape:connector-curvature="0" />
      </g>
      <g
         id="g562"
         style="fill:#25ebee;fill-rule:nonzero">
        <path
           d="m 167.286,91.253 c 0,0.263 -0.176,0.526 -0.396,0.658 -0.22,0.131 -0.395,0.044 -0.395,-0.22 0,-0.263 0.175,-0.526 0.395,-0.658 0.22,-0.131 0.396,-0.043 0.396,0.22 z m 1.494,-0.878 c 0,0.264 -0.175,0.527 -0.395,0.658 -0.22,0.132 -0.396,0.044 -0.396,-0.219 0,-0.263 0.176,-0.526 0.396,-0.658 0.22,-0.131 0.396,-0.044 0.396,0.22 z m 1.54,-0.877 c 0,0.263 -0.176,0.527 -0.396,0.658 -0.22,0.132 -0.396,0.044 -0.396,-0.22 0,-0.262 0.176,-0.526 0.396,-0.657 0.22,-0.132 0.396,-0.044 0.396,0.22 z m 1.495,-0.878 c 0,0.264 -0.176,0.527 -0.396,0.659 -0.22,0.131 -0.396,0.044 -0.396,-0.22 0,-0.263 0.176,-0.526 0.396,-0.658 0.22,-0.131 0.396,-0.043 0.396,0.22 z m 1.495,-0.877 c 0,0.264 -0.176,0.527 -0.396,0.658 -0.22,0.132 -0.396,0.044 -0.396,-0.219 0,-0.263 0.176,-0.526 0.396,-0.658 0.22,-0.132 0.395,-0.044 0.395,0.22 z m 1.494,-0.877 c 0,0.263 -0.176,0.526 -0.395,0.658 -0.22,0.132 -0.396,0.044 -0.396,-0.22 0,-0.263 0.176,-0.526 0.396,-0.657 0.22,-0.132 0.395,-0.044 0.395,0.219 z m 1.496,-0.877 c 0,0.263 -0.177,0.526 -0.397,0.658 -0.22,0.131 -0.395,0.044 -0.395,-0.22 0,-0.263 0.176,-0.526 0.395,-0.658 0.22,-0.131 0.396,-0.044 0.396,0.22 z m -10.333,7.413 c 0,0.264 -0.176,0.527 -0.396,0.658 -0.22,0.132 -0.395,0.044 -0.395,-0.219 0,-0.263 0.175,-0.526 0.395,-0.658 0.22,-0.132 0.396,-0.044 0.396,0.22 z m 1.363,0.614 c 0,0.264 -0.176,0.527 -0.396,0.659 -0.22,0.131 -0.395,0.043 -0.395,-0.22 0,-0.263 0.175,-0.526 0.395,-0.658 0.22,-0.131 0.396,-0.044 0.396,0.22 z m 1.495,-0.876 c 0,0.262 -0.176,0.526 -0.396,0.657 -0.22,0.132 -0.396,0.044 -0.396,-0.22 0,-0.262 0.176,-0.526 0.396,-0.657 0.22,-0.132 0.396,-0.044 0.396,0.22 z m 1.495,-0.878 c 0,0.263 -0.176,0.526 -0.396,0.658 -0.22,0.131 -0.396,0.044 -0.396,-0.22 0,-0.263 0.176,-0.526 0.396,-0.658 0.22,-0.131 0.396,-0.043 0.396,0.22 z m 1.495,-0.878 c 0,0.264 -0.176,0.527 -0.396,0.658 -0.22,0.132 -0.396,0.044 -0.396,-0.219 0,-0.263 0.176,-0.526 0.396,-0.658 0.22,-0.132 0.396,-0.044 0.396,0.22 z m 1.495,-0.877 c 0,0.263 -0.176,0.526 -0.396,0.658 -0.22,0.132 -0.396,0.044 -0.396,-0.22 0,-0.262 0.176,-0.526 0.396,-0.657 0.22,-0.132 0.395,-0.044 0.395,0.22 z m 1.538,-0.877 c 0,0.263 -0.176,0.526 -0.395,0.658 -0.22,0.131 -0.396,0.044 -0.396,-0.22 0,-0.263 0.176,-0.526 0.396,-0.658 0.22,-0.131 0.395,-0.044 0.395,0.22 z m 1.495,-0.878 c 0,0.264 -0.176,0.527 -0.396,0.658 -0.22,0.132 -0.395,0.044 -0.395,-0.219 0,-0.263 0.176,-0.526 0.395,-0.658 0.22,-0.132 0.396,-0.044 0.396,0.22 z m -9.013,3.861 c 0,0.263 -0.176,0.526 -0.396,0.658 -0.22,0.131 -0.395,0.044 -0.395,-0.22 0,-0.263 0.175,-0.526 0.395,-0.658 0.22,-0.087 0.396,0 0.396,0.22 z m 1.495,-0.878 c 0,0.264 -0.176,0.527 -0.396,0.658 -0.22,0.132 -0.396,0.044 -0.396,-0.219 0,-0.263 0.176,-0.526 0.396,-0.658 0.22,-0.088 0.396,0 0.396,0.22 z m 1.495,-0.877 c 0,0.263 -0.176,0.526 -0.396,0.658 -0.22,0.132 -0.396,0.044 -0.396,-0.22 0,-0.263 0.176,-0.526 0.396,-0.657 0.22,-0.088 0.396,0 0.396,0.219 z m 1.495,-0.878 c 0,0.264 -0.176,0.527 -0.396,0.659 -0.22,0.131 -0.396,0.044 -0.396,-0.22 0,-0.263 0.176,-0.526 0.396,-0.658 0.22,-0.087 0.396,0 0.396,0.22 z m 1.495,-0.877 c 0,0.263 -0.176,0.527 -0.396,0.658 -0.22,0.132 -0.396,0.044 -0.396,-0.219 0,-0.263 0.176,-0.526 0.396,-0.658 0.22,-0.088 0.395,0 0.395,0.22 z m 1.538,-0.877 c 0,0.263 -0.176,0.526 -0.395,0.658 -0.22,0.132 -0.396,0.044 -0.396,-0.22 0,-0.263 0.176,-0.526 0.396,-0.657 0.22,-0.088 0.395,0 0.395,0.219 z m 1.495,-0.877 c 0,0.263 -0.176,0.526 -0.396,0.658 -0.22,0.131 -0.395,0.043 -0.395,-0.22 0,-0.263 0.176,-0.526 0.395,-0.658 0.22,-0.131 0.396,0 0.396,0.22 z m 1.495,-0.878 c 0,0.263 -0.176,0.527 -0.396,0.658 -0.22,0.132 -0.395,0.044 -0.395,-0.22 0,-0.262 0.175,-0.526 0.395,-0.657 0.22,-0.132 0.396,0 0.396,0.22 z"
           id="path560"
           inkscape:connector-curvature="0" />
      </g>
      <g
         id="g566"
         style="fill:#25ebee;fill-rule:nonzero">
        <path
           d="m 167.682,99.675 c 0,0.264 -0.176,0.527 -0.396,0.658 -0.22,0.132 -0.396,0.044 -0.396,-0.219 0,-0.263 0.176,-0.526 0.396,-0.658 0.22,-0.131 0.396,-0.044 0.396,0.22 z m 1.495,-0.877 c 0,0.263 -0.176,0.527 -0.396,0.658 -0.22,0.132 -0.396,0.044 -0.396,-0.22 0,-0.262 0.176,-0.526 0.396,-0.657 0.22,-0.132 0.396,-0.044 0.396,0.22 z m 1.494,-0.878 c 0,0.264 -0.175,0.527 -0.395,0.659 -0.22,0.131 -0.396,0.044 -0.396,-0.22 0,-0.263 0.176,-0.526 0.396,-0.658 0.22,-0.131 0.395,-0.043 0.395,0.22 z m 1.539,-0.877 c 0,0.264 -0.176,0.527 -0.395,0.658 -0.22,0.132 -0.396,0.044 -0.396,-0.219 0,-0.263 0.176,-0.526 0.396,-0.658 0.22,-0.132 0.395,-0.044 0.395,0.22 z m 1.495,-0.877 c 0,0.263 -0.176,0.526 -0.396,0.658 -0.22,0.132 -0.395,0.044 -0.395,-0.22 0,-0.263 0.176,-0.526 0.395,-0.657 0.22,-0.132 0.396,-0.044 0.396,0.219 z m 1.495,-0.877 c 0,0.263 -0.176,0.526 -0.396,0.658 -0.22,0.131 -0.395,0.044 -0.395,-0.22 0,-0.263 0.175,-0.526 0.395,-0.658 0.22,-0.131 0.396,-0.044 0.396,0.22 z m 1.495,-0.878 c 0,0.264 -0.176,0.527 -0.396,0.658 -0.22,0.132 -0.396,0.044 -0.396,-0.219 0,-0.263 0.176,-0.526 0.396,-0.658 0.22,-0.132 0.396,-0.044 0.396,0.22 z m -10.332,7.414 c 0,0.263 -0.176,0.526 -0.396,0.658 -0.22,0.132 -0.396,0.044 -0.396,-0.22 0,-0.263 0.176,-0.526 0.396,-0.657 0.22,-0.132 0.396,-0.044 0.396,0.219 z m 1.363,0.615 c 0,0.262 -0.176,0.526 -0.396,0.657 -0.22,0.132 -0.396,0.044 -0.396,-0.22 0,-0.262 0.176,-0.526 0.396,-0.657 0.22,-0.132 0.396,-0.044 0.396,0.22 z m 1.494,-0.878 c 0,0.263 -0.175,0.526 -0.395,0.658 -0.22,0.131 -0.396,0.044 -0.396,-0.22 0,-0.263 0.176,-0.526 0.396,-0.658 0.22,-0.131 0.395,-0.043 0.395,0.22 z m 1.495,-0.878 c 0,0.264 -0.175,0.527 -0.395,0.658 -0.22,0.132 -0.396,0.044 -0.396,-0.219 0,-0.263 0.176,-0.526 0.396,-0.658 0.22,-0.132 0.395,-0.044 0.395,0.22 z m 1.495,-0.877 c 0,0.263 -0.176,0.526 -0.395,0.658 -0.22,0.132 -0.396,0.044 -0.396,-0.22 0,-0.262 0.176,-0.526 0.396,-0.657 0.22,-0.132 0.395,-0.044 0.395,0.22 z m 1.495,-0.877 c 0,0.263 -0.176,0.526 -0.396,0.658 -0.22,0.131 -0.395,0.044 -0.395,-0.22 0,-0.263 0.176,-0.526 0.395,-0.658 0.22,-0.131 0.396,-0.044 0.396,0.22 z m 1.495,-0.878 c 0,0.264 -0.176,0.527 -0.396,0.658 -0.22,0.132 -0.395,0.044 -0.395,-0.219 0,-0.263 0.175,-0.526 0.395,-0.658 0.264,-0.132 0.396,-0.044 0.396,0.22 z m 1.539,-0.877 c 0,0.263 -0.176,0.526 -0.396,0.658 -0.22,0.132 -0.396,0.044 -0.396,-0.22 0,-0.263 0.176,-0.526 0.396,-0.657 0.22,-0.132 0.396,-0.044 0.396,0.219 z m -9.013,3.86 c 0,0.264 -0.176,0.527 -0.396,0.658 -0.22,0.132 -0.396,0.044 -0.396,-0.219 0,-0.263 0.176,-0.526 0.396,-0.658 0.22,-0.132 0.396,0 0.396,0.22 z m 1.494,-0.877 c 0,0.263 -0.175,0.526 -0.395,0.658 -0.22,0.132 -0.396,0.044 -0.396,-0.22 0,-0.263 0.176,-0.526 0.396,-0.657 0.22,-0.132 0.395,0 0.395,0.219 z m 1.495,-0.878 c 0,0.264 -0.175,0.527 -0.395,0.659 -0.22,0.131 -0.396,0.044 -0.396,-0.22 0,-0.263 0.176,-0.526 0.396,-0.658 0.22,-0.131 0.395,0 0.395,0.22 z m 1.495,-0.877 c 0,0.263 -0.176,0.527 -0.395,0.658 -0.22,0.132 -0.396,0.044 -0.396,-0.219 0,-0.263 0.176,-0.526 0.396,-0.658 0.22,-0.132 0.395,0 0.395,0.22 z m 1.495,-0.877 c 0,0.263 -0.176,0.526 -0.396,0.658 -0.22,0.132 -0.395,0.044 -0.395,-0.22 0,-0.263 0.176,-0.526 0.395,-0.657 0.22,-0.132 0.396,0 0.396,0.219 z m 1.495,-0.877 c 0,0.263 -0.176,0.526 -0.396,0.658 -0.22,0.131 -0.395,0.043 -0.395,-0.22 0,-0.263 0.175,-0.526 0.395,-0.658 0.264,-0.131 0.396,0 0.396,0.22 z m 1.539,-0.878 c 0,0.263 -0.176,0.527 -0.396,0.658 -0.22,0.132 -0.396,0.044 -0.396,-0.22 0,-0.262 0.176,-0.526 0.396,-0.657 0.22,-0.132 0.396,0 0.396,0.22 z m 1.495,-0.877 c 0,0.263 -0.176,0.526 -0.396,0.658 -0.22,0.131 -0.396,0.044 -0.396,-0.22 0,-0.263 0.176,-0.526 0.396,-0.657 0.22,-0.132 0.396,0 0.396,0.219 z"
           id="path564"
           inkscape:connector-curvature="0" />
      </g>
      <g
         id="g570"
         style="fill:#25ebee;fill-rule:nonzero">
        <path
           d="m 167.33,108.361 c 0,0.264 -0.176,0.527 -0.396,0.658 -0.22,0.132 -0.395,0.044 -0.395,-0.219 0,-0.263 0.175,-0.526 0.395,-0.658 0.22,-0.132 0.396,-0.044 0.396,0.22 z m 1.495,-0.877 c 0,0.263 -0.176,0.526 -0.396,0.658 -0.22,0.132 -0.396,0.044 -0.396,-0.22 0,-0.263 0.176,-0.526 0.396,-0.657 0.22,-0.132 0.396,-0.044 0.396,0.219 z m 1.495,-0.877 c 0,0.263 -0.176,0.526 -0.396,0.658 -0.22,0.131 -0.396,0.043 -0.396,-0.22 0,-0.263 0.176,-0.526 0.396,-0.658 0.22,-0.131 0.396,-0.044 0.396,0.22 z m 1.495,-0.877 c 0,0.262 -0.176,0.526 -0.396,0.657 -0.22,0.132 -0.396,0.044 -0.396,-0.22 0,-0.262 0.176,-0.526 0.396,-0.657 0.22,-0.132 0.396,-0.044 0.396,0.22 z m 1.495,-0.878 c 0,0.263 -0.176,0.526 -0.396,0.658 -0.22,0.131 -0.396,0.044 -0.396,-0.22 0,-0.263 0.176,-0.526 0.396,-0.657 0.22,-0.132 0.395,-0.044 0.395,0.219 z m 1.538,-0.877 c 0,0.263 -0.176,0.526 -0.395,0.658 -0.22,0.131 -0.396,0.043 -0.396,-0.22 0,-0.263 0.176,-0.526 0.396,-0.658 0.22,-0.131 0.395,-0.044 0.395,0.22 z m 1.495,-0.878 c 0,0.263 -0.176,0.527 -0.396,0.658 -0.22,0.132 -0.395,0.044 -0.395,-0.22 0,-0.262 0.176,-0.526 0.395,-0.657 0.22,-0.132 0.396,-0.044 0.396,0.22 z m -10.376,7.37 c 0,0.263 -0.176,0.526 -0.396,0.658 -0.22,0.132 -0.395,0.044 -0.395,-0.22 0,-0.263 0.175,-0.526 0.395,-0.657 0.264,-0.132 0.396,0 0.396,0.219 z m 1.363,0.614 c 0,0.263 -0.176,0.527 -0.396,0.658 -0.22,0.132 -0.395,0.044 -0.395,-0.22 0,-0.262 0.175,-0.526 0.395,-0.657 0.22,-0.132 0.396,0 0.396,0.22 z m 1.539,-0.877 c 0,0.263 -0.176,0.526 -0.396,0.658 -0.22,0.131 -0.396,0.044 -0.396,-0.22 0,-0.263 0.176,-0.526 0.396,-0.658 0.22,-0.131 0.396,0 0.396,0.22 z m 1.495,-0.878 c 0,0.264 -0.176,0.527 -0.396,0.658 -0.22,0.132 -0.396,0.044 -0.396,-0.219 0,-0.263 0.176,-0.526 0.396,-0.658 0.22,-0.132 0.396,0 0.396,0.22 z m 1.495,-0.877 c 0,0.263 -0.176,0.526 -0.396,0.658 -0.22,0.132 -0.396,0.044 -0.396,-0.22 0,-0.262 0.176,-0.526 0.396,-0.657 0.22,-0.132 0.396,0 0.396,0.219 z m 1.494,-0.877 c 0,0.263 -0.175,0.526 -0.395,0.658 -0.22,0.131 -0.396,0.044 -0.396,-0.22 0,-0.263 0.176,-0.526 0.396,-0.658 0.22,-0.131 0.395,0 0.395,0.22 z m 1.495,-0.878 c 0,0.264 -0.176,0.527 -0.395,0.658 -0.22,0.132 -0.396,0.044 -0.396,-0.219 0,-0.263 0.176,-0.526 0.396,-0.658 0.22,-0.132 0.395,0 0.395,0.22 z m 1.495,-0.877 c 0,0.263 -0.176,0.526 -0.396,0.658 -0.22,0.132 -0.395,0.044 -0.395,-0.22 0,-0.263 0.176,-0.526 0.395,-0.657 0.22,-0.132 0.396,0 0.396,0.219 z m -9.013,3.904 c 0,0.263 -0.176,0.527 -0.396,0.658 -0.22,0.132 -0.395,0.044 -0.395,-0.22 0,-0.262 0.175,-0.526 0.395,-0.657 0.22,-0.132 0.396,-0.044 0.396,0.22 z m 1.539,-0.877 c 0,0.263 -0.176,0.526 -0.396,0.658 -0.22,0.131 -0.396,0.044 -0.396,-0.22 0,-0.263 0.176,-0.526 0.396,-0.657 0.22,-0.132 0.396,-0.044 0.396,0.219 z m 1.495,-0.878 c 0,0.264 -0.176,0.527 -0.396,0.659 -0.22,0.131 -0.396,0.043 -0.396,-0.22 0,-0.263 0.176,-0.526 0.396,-0.658 0.22,-0.131 0.396,-0.044 0.396,0.22 z m 1.495,-0.876 c 0,0.262 -0.176,0.526 -0.396,0.657 -0.22,0.132 -0.396,0.044 -0.396,-0.22 0,-0.262 0.176,-0.526 0.396,-0.657 0.22,-0.132 0.396,-0.044 0.396,0.22 z m 1.494,-0.878 c 0,0.263 -0.175,0.526 -0.395,0.658 -0.22,0.131 -0.396,0.044 -0.396,-0.22 0,-0.263 0.176,-0.526 0.396,-0.658 0.22,-0.131 0.395,-0.043 0.395,0.22 z m 1.495,-0.878 c 0,0.264 -0.176,0.527 -0.395,0.658 -0.22,0.132 -0.396,0.044 -0.396,-0.219 0,-0.263 0.176,-0.526 0.396,-0.658 0.22,-0.132 0.395,-0.044 0.395,0.22 z m 1.495,-0.877 c 0,0.263 -0.176,0.526 -0.396,0.658 -0.22,0.132 -0.395,0.044 -0.395,-0.22 0,-0.262 0.176,-0.526 0.395,-0.657 0.22,-0.132 0.396,-0.044 0.396,0.22 z m 1.539,-0.877 c 0,0.263 -0.176,0.526 -0.396,0.658 -0.22,0.131 -0.395,0.044 -0.395,-0.22 0,-0.263 0.175,-0.526 0.395,-0.658 0.22,-0.131 0.396,-0.044 0.396,0.22 z"
           id="path568"
           inkscape:connector-curvature="0" />
      </g>
      <g
         id="g574"
         style="fill:#25ebee;fill-rule:nonzero">
        <path
           d="m 166.934,117.003 c 0,0.263 -0.176,0.527 -0.395,0.658 -0.22,0.132 -0.396,0.044 -0.396,-0.219 0,-0.263 0.176,-0.526 0.396,-0.658 0.263,-0.132 0.395,0 0.395,0.22 z m 1.539,-0.877 c 0,0.263 -0.176,0.526 -0.396,0.658 -0.22,0.132 -0.395,0.044 -0.395,-0.22 0,-0.263 0.176,-0.526 0.395,-0.657 0.22,-0.132 0.396,0 0.396,0.219 z m 1.495,-0.877 c 0,0.263 -0.176,0.526 -0.396,0.658 -0.22,0.131 -0.395,0.043 -0.395,-0.22 0,-0.263 0.175,-0.526 0.395,-0.658 0.22,-0.131 0.396,0 0.396,0.22 z m 1.495,-0.878 c 0,0.263 -0.176,0.527 -0.396,0.658 -0.22,0.132 -0.396,0.044 -0.396,-0.22 0,-0.262 0.176,-0.526 0.396,-0.657 0.22,-0.132 0.396,0 0.396,0.22 z m 1.495,-0.877 c 0,0.263 -0.176,0.526 -0.396,0.658 -0.22,0.131 -0.396,0.044 -0.396,-0.22 0,-0.263 0.176,-0.526 0.396,-0.657 0.22,-0.132 0.396,0 0.396,0.219 z m 1.495,-0.878 c 0,0.264 -0.176,0.527 -0.396,0.659 -0.22,0.131 -0.396,0.043 -0.396,-0.22 0,-0.263 0.176,-0.526 0.396,-0.658 0.22,-0.131 0.396,0 0.396,0.22 z m 1.538,-0.876 c 0,0.262 -0.175,0.526 -0.395,0.657 -0.22,0.132 -0.396,0.044 -0.396,-0.22 0,-0.262 0.176,-0.526 0.396,-0.657 0.22,-0.132 0.395,0 0.395,0.22 z m -10.376,7.413 c 0,0.263 -0.176,0.526 -0.395,0.658 -0.22,0.131 -0.396,0.044 -0.396,-0.22 0,-0.263 0.176,-0.526 0.396,-0.658 0.22,-0.131 0.395,-0.043 0.395,0.22 z m 1.363,0.614 c 0,0.263 -0.176,0.526 -0.396,0.658 -0.22,0.132 -0.395,0.044 -0.395,-0.22 0,-0.263 0.176,-0.526 0.395,-0.657 0.22,-0.132 0.396,-0.044 0.396,0.219 z m 1.495,-0.877 c 0,0.263 -0.176,0.526 -0.396,0.658 -0.22,0.131 -0.395,0.043 -0.395,-0.22 0,-0.263 0.176,-0.526 0.395,-0.658 0.22,-0.131 0.396,-0.044 0.396,0.22 z m 1.495,-0.878 c 0,0.263 -0.176,0.527 -0.396,0.658 -0.22,0.132 -0.395,0.044 -0.395,-0.22 0,-0.262 0.175,-0.525 0.395,-0.657 0.22,-0.132 0.396,-0.044 0.396,0.22 z m 1.539,-0.877 c 0,0.263 -0.176,0.526 -0.396,0.658 -0.22,0.132 -0.396,0.044 -0.396,-0.22 0,-0.263 0.176,-0.526 0.396,-0.657 0.22,-0.132 0.396,-0.044 0.396,0.219 z m 1.495,-0.877 c 0,0.263 -0.176,0.526 -0.396,0.658 -0.22,0.131 -0.396,0.043 -0.396,-0.22 0,-0.263 0.176,-0.526 0.396,-0.658 0.22,-0.131 0.396,-0.044 0.396,0.22 z m 1.495,-0.878 c 0,0.263 -0.176,0.527 -0.396,0.658 -0.22,0.132 -0.396,0.044 -0.396,-0.22 0,-0.262 0.176,-0.526 0.396,-0.657 0.22,-0.132 0.396,-0.044 0.396,0.22 z m 1.494,-0.877 c 0,0.263 -0.175,0.526 -0.395,0.658 -0.22,0.131 -0.396,0.044 -0.396,-0.22 0,-0.263 0.176,-0.526 0.396,-0.658 0.22,-0.131 0.395,-0.043 0.395,0.22 z m -9.013,3.904 c 0,0.263 -0.176,0.526 -0.396,0.658 -0.22,0.132 -0.395,0.044 -0.395,-0.22 0,-0.262 0.176,-0.526 0.395,-0.657 0.22,-0.132 0.396,-0.044 0.396,0.219 z m 1.495,-0.877 c 0,0.263 -0.176,0.526 -0.396,0.658 -0.22,0.131 -0.395,0.044 -0.395,-0.22 0,-0.263 0.176,-0.526 0.395,-0.658 0.22,-0.131 0.396,-0.044 0.396,0.22 z m 1.495,-0.878 c 0,0.264 -0.176,0.527 -0.396,0.658 -0.22,0.132 -0.395,0.044 -0.395,-0.219 0,-0.263 0.175,-0.526 0.395,-0.658 0.22,-0.132 0.396,-0.044 0.396,0.22 z m 1.539,-0.877 c 0,0.263 -0.176,0.526 -0.396,0.658 -0.22,0.132 -0.396,0.044 -0.396,-0.22 0,-0.263 0.176,-0.526 0.396,-0.657 0.22,-0.132 0.396,-0.044 0.396,0.219 z m 1.495,-0.877 c 0,0.263 -0.176,0.526 -0.396,0.658 -0.22,0.131 -0.396,0.044 -0.396,-0.22 0,-0.263 0.176,-0.526 0.396,-0.658 0.22,-0.131 0.396,-0.044 0.396,0.22 z m 1.495,-0.878 c 0,0.263 -0.176,0.527 -0.396,0.658 -0.22,0.132 -0.396,0.044 -0.396,-0.22 0,-0.262 0.176,-0.525 0.396,-0.657 0.22,-0.132 0.396,-0.044 0.396,0.22 z m 1.494,-0.877 c 0,0.263 -0.175,0.526 -0.395,0.658 -0.22,0.132 -0.396,0.044 -0.396,-0.22 0,-0.263 0.176,-0.526 0.396,-0.657 0.22,-0.132 0.395,-0.044 0.395,0.219 z m 1.495,-0.877 c 0,0.263 -0.176,0.526 -0.395,0.658 -0.22,0.131 -0.396,0.043 -0.396,-0.22 0,-0.263 0.176,-0.526 0.396,-0.658 0.22,-0.131 0.395,-0.044 0.395,0.22 z"
           id="path572"
           inkscape:connector-curvature="0" />
      </g>
      <g
         id="g578"
         style="fill:#25ebee;fill-rule:nonzero">
        <path
           d="m 166.582,125.69 c 0,0.262 -0.175,0.526 -0.395,0.657 -0.22,0.132 -0.396,0.044 -0.396,-0.22 0,-0.262 0.176,-0.526 0.396,-0.657 0.22,-0.132 0.395,-0.044 0.395,0.22 z m 1.495,-0.878 c 0,0.263 -0.176,0.526 -0.395,0.658 -0.22,0.131 -0.396,0.044 -0.396,-0.22 0,-0.263 0.176,-0.526 0.396,-0.658 0.22,-0.131 0.395,-0.043 0.395,0.22 z m 1.539,-0.878 c 0,0.264 -0.176,0.527 -0.396,0.658 -0.22,0.132 -0.395,0.044 -0.395,-0.219 0,-0.263 0.176,-0.526 0.395,-0.658 0.22,-0.132 0.396,-0.044 0.396,0.22 z m 1.495,-0.877 c 0,0.263 -0.176,0.526 -0.396,0.658 -0.22,0.132 -0.395,0.044 -0.395,-0.22 0,-0.262 0.176,-0.526 0.395,-0.657 0.22,-0.132 0.396,-0.044 0.396,0.219 z m 1.495,-0.877 c 0,0.263 -0.176,0.526 -0.396,0.658 -0.22,0.131 -0.395,0.044 -0.395,-0.22 0,-0.263 0.175,-0.526 0.395,-0.658 0.22,-0.131 0.396,-0.044 0.396,0.22 z m 1.494,-0.878 c 0,0.264 -0.175,0.527 -0.395,0.658 -0.22,0.132 -0.396,0.044 -0.396,-0.219 0,-0.263 0.176,-0.526 0.396,-0.658 0.22,-0.132 0.396,-0.044 0.396,0.22 z m 1.496,-0.877 c 0,0.263 -0.176,0.526 -0.396,0.658 -0.22,0.132 -0.396,0.044 -0.396,-0.22 0,-0.263 0.176,-0.526 0.396,-0.657 0.22,-0.132 0.396,-0.044 0.396,0.219 z m -10.333,7.414 c 0,0.263 -0.175,0.526 -0.395,0.658 -0.22,0.131 -0.396,0.044 -0.396,-0.22 0,-0.263 0.176,-0.526 0.396,-0.658 0.22,-0.131 0.395,-0.044 0.395,0.22 z m 1.363,0.614 c 0,0.263 -0.175,0.526 -0.395,0.658 -0.22,0.131 -0.396,0.044 -0.396,-0.22 0,-0.263 0.176,-0.526 0.396,-0.658 0.22,-0.131 0.395,-0.043 0.395,0.22 z m 1.495,-0.878 c 0,0.264 -0.176,0.527 -0.395,0.658 -0.22,0.132 -0.396,0.044 -0.396,-0.219 0,-0.263 0.176,-0.526 0.396,-0.658 0.22,-0.132 0.395,-0.044 0.395,0.22 z m 1.495,-0.877 c 0,0.263 -0.176,0.526 -0.396,0.658 -0.22,0.132 -0.395,0.044 -0.395,-0.22 0,-0.262 0.176,-0.526 0.395,-0.657 0.22,-0.132 0.396,-0.044 0.396,0.22 z m 1.495,-0.878 c 0,0.264 -0.176,0.527 -0.396,0.659 -0.22,0.131 -0.395,0.044 -0.395,-0.22 0,-0.263 0.176,-0.526 0.395,-0.658 0.22,-0.131 0.396,-0.043 0.396,0.22 z m 1.539,-0.877 c 0,0.264 -0.176,0.527 -0.396,0.658 -0.22,0.132 -0.395,0.044 -0.395,-0.219 0,-0.263 0.175,-0.526 0.395,-0.658 0.22,-0.132 0.396,-0.044 0.396,0.22 z m 1.495,-0.877 c 0,0.263 -0.176,0.526 -0.396,0.658 -0.22,0.132 -0.396,0.044 -0.396,-0.22 0,-0.263 0.176,-0.526 0.396,-0.657 0.22,-0.132 0.396,-0.044 0.396,0.219 z m 1.495,-0.877 c 0,0.263 -0.176,0.526 -0.396,0.658 -0.22,0.131 -0.396,0.044 -0.396,-0.22 0,-0.263 0.176,-0.526 0.396,-0.658 0.22,-0.131 0.396,-0.044 0.396,0.22 z m -9.014,3.86 c 0,0.263 -0.175,0.526 -0.395,0.658 -0.22,0.132 -0.396,0.044 -0.396,-0.22 0,-0.263 0.176,-0.526 0.396,-0.657 0.22,-0.088 0.395,0 0.395,0.219 z m 1.495,-0.877 c 0,0.263 -0.176,0.526 -0.395,0.658 -0.22,0.131 -0.396,0.044 -0.396,-0.22 0,-0.263 0.176,-0.526 0.396,-0.658 0.22,-0.087 0.395,0 0.395,0.22 z m 1.495,-0.878 c 0,0.264 -0.176,0.527 -0.396,0.658 -0.22,0.132 -0.395,0.044 -0.395,-0.219 0,-0.263 0.176,-0.526 0.395,-0.658 0.22,-0.088 0.396,0 0.396,0.22 z m 1.495,-0.877 c 0,0.263 -0.176,0.526 -0.396,0.658 -0.22,0.132 -0.395,0.044 -0.395,-0.22 0,-0.263 0.176,-0.526 0.395,-0.657 0.22,-0.088 0.396,0 0.396,0.219 z m 1.539,-0.877 c 0,0.263 -0.176,0.526 -0.396,0.658 -0.22,0.131 -0.395,0.043 -0.395,-0.22 0,-0.263 0.175,-0.526 0.395,-0.658 0.22,-0.087 0.396,0 0.396,0.22 z m 1.495,-0.878 c 0,0.263 -0.176,0.527 -0.396,0.658 -0.22,0.132 -0.396,0.044 -0.396,-0.22 0,-0.262 0.176,-0.526 0.396,-0.657 0.22,-0.088 0.396,0 0.396,0.22 z m 1.495,-0.877 c 0,0.263 -0.176,0.526 -0.396,0.658 -0.22,0.131 -0.396,0.044 -0.396,-0.22 0,-0.263 0.176,-0.526 0.396,-0.657 0.22,-0.088 0.396,0 0.396,0.219 z m 1.495,-0.877 c 0,0.263 -0.176,0.526 -0.396,0.658 -0.22,0.131 -0.396,0.043 -0.396,-0.22 0,-0.263 0.176,-0.526 0.396,-0.658 0.22,-0.088 0.396,0 0.396,0.22 z"
           id="path576"
           inkscape:connector-curvature="0" />
      </g>
      <path
         d="M 60.147,32.506 84.592,18.381 59.532,3.948 35.349,17.898 Z"
         transform="translate(88.717,53)"
         id="path580"
         style="fill:url(#j);fill-rule:nonzero;stroke:#ffffff;stroke-width:0.5;stroke-linecap:round"
         inkscape:connector-curvature="0" />
      <path
         d="m 119.494,78.97 17.938,10.046"
         id="path582"
         inkscape:connector-curvature="0"
         style="stroke:#25ebee;stroke-width:0.5;stroke-linecap:round;stroke-linejoin:round" />
      <path
         d="m 139.499,90.42 6.375,3.553"
         id="path584"
         inkscape:connector-curvature="0"
         style="stroke:#105fcf;stroke-width:0.60000002;stroke-linecap:round;stroke-linejoin:round" />
      <path
         d="m 139.499,91.999 6.375,3.597 m -26.336,-15.003 17.938,10.09"
         id="path586"
         inkscape:connector-curvature="0"
         style="stroke:#e6e6e6;stroke-width:0.60000002;stroke-linecap:round;stroke-linejoin:round" />
      <g
         id="g596"
         style="stroke-linecap:round;stroke-linejoin:round">
        <path
           d="m 119.406,85.506 26.116,14.389"
           id="path588"
           inkscape:connector-curvature="0"
           style="opacity:0.6;stroke:#ffffff" />
        <path
           d="m 119.274,87.13 17.939,10.089"
           id="path590"
           inkscape:connector-curvature="0"
           style="stroke:#25ebee;stroke-width:0.5" />
        <path
           d="m 139.279,98.579 6.375,3.597"
           id="path592"
           inkscape:connector-curvature="0"
           style="stroke:#105fcf;stroke-width:0.60000002" />
        <path
           d="m 139.279,100.202 6.331,3.553 m -26.336,-14.959 17.983,10.09"
           id="path594"
           inkscape:connector-curvature="0"
           style="stroke:#e6e6e6;stroke-width:0.60000002" />
      </g>
      <g
         id="g606"
         style="stroke-linecap:round;stroke-linejoin:round">
        <path
           d="m 119.626,92.876 26.116,14.432"
           id="path598"
           inkscape:connector-curvature="0"
           style="opacity:0.6;stroke:#ffffff" />
        <path
           d="m 119.494,94.543 17.938,10.09"
           id="path600"
           inkscape:connector-curvature="0"
           style="stroke:#25ebee;stroke-width:0.5" />
        <path
           d="m 139.499,105.992 6.375,3.554"
           id="path602"
           inkscape:connector-curvature="0"
           style="stroke:#105fcf;stroke-width:0.60000002" />
        <path
           d="m 139.499,107.616 6.375,3.553 M 119.538,96.166 137.476,106.3"
           id="path604"
           inkscape:connector-curvature="0"
           style="stroke:#e6e6e6;stroke-width:0.60000002" />
      </g>
      <g
         id="g616"
         style="stroke-linecap:round;stroke-linejoin:round">
        <path
           d="m 119.406,100.202 26.116,14.432"
           id="path608"
           inkscape:connector-curvature="0"
           style="opacity:0.6;stroke:#ffffff" />
        <path
           d="m 119.274,101.869 17.939,10.09"
           id="path610"
           inkscape:connector-curvature="0"
           style="stroke:#25ebee;stroke-width:0.5" />
        <path
           d="m 139.279,113.318 6.375,3.554"
           id="path612"
           inkscape:connector-curvature="0"
           style="stroke:#105fcf;stroke-width:0.60000002" />
        <path
           d="m 139.279,114.898 6.331,3.597 m -26.336,-15.003 17.983,10.133"
           id="path614"
           inkscape:connector-curvature="0"
           style="stroke:#e6e6e6;stroke-width:0.60000002" />
      </g>
      <g
         id="g626"
         style="stroke-linecap:round;stroke-linejoin:round">
        <path
           d="m 119.406,107.308 26.116,14.433"
           id="path618"
           inkscape:connector-curvature="0"
           style="opacity:0.6;stroke:#ffffff" />
        <path
           d="m 119.274,108.975 17.939,10.046"
           id="path620"
           inkscape:connector-curvature="0"
           style="stroke:#25ebee;stroke-width:0.5" />
        <path
           d="m 139.279,120.425 6.375,3.553"
           id="path622"
           inkscape:connector-curvature="0"
           style="stroke:#105fcf;stroke-width:0.60000002" />
        <path
           d="m 139.279,122.004 6.331,3.597 m -26.336,-15.002 17.983,10.09"
           id="path624"
           inkscape:connector-curvature="0"
           style="stroke:#e6e6e6;stroke-width:0.60000002" />
      </g>
      <g
         id="g636"
         style="stroke-linecap:round;stroke-linejoin:round">
        <path
           d="m 119.406,114.854 26.116,14.432"
           id="path628"
           inkscape:connector-curvature="0"
           style="opacity:0.6;stroke:#ffffff" />
        <path
           d="m 119.274,116.52 17.939,10.046"
           id="path630"
           inkscape:connector-curvature="0"
           style="stroke:#25ebee;stroke-width:0.5" />
        <path
           d="m 139.279,127.97 6.375,3.554"
           id="path632"
           inkscape:connector-curvature="0"
           style="stroke:#105fcf;stroke-width:0.60000002" />
        <path
           d="m 139.279,129.55 6.331,3.597 m -26.336,-15.003 17.983,10.09"
           id="path634"
           inkscape:connector-curvature="0"
           style="stroke:#e6e6e6;stroke-width:0.60000002" />
      </g>
      <path
         d="M 110.753,102.256 70.39,78.962 l 34.734,-20.047 40.01,23.074 z"
         transform="translate(88.717,53)"
         id="path638"
         style="fill:url(#k);fill-rule:nonzero;stroke:#ffffff;stroke-width:0.5"
         inkscape:connector-curvature="0" />
      <path
         d="m 144.827,122.918 -33.898,19.521 -0.088,-40.183 33.986,-19.916 z"
         transform="translate(88.717,53)"
         id="path640"
         style="fill:url(#l);fill-rule:nonzero;stroke:#ffffff;stroke-width:0.5;stroke-linecap:round"
         inkscape:connector-curvature="0" />
      <path
         d="M 110.84,142.483 70.7,119.277 70.392,79.137 110.754,102.3 Z"
         transform="translate(88.717,53)"
         id="path642"
         style="fill:url(#m);fill-rule:nonzero;stroke:#ffffff;stroke-width:0.5;stroke-linecap:round"
         inkscape:connector-curvature="0" />
      <path
         d="M 110.181,98.264 77.294,79.27 105.609,62.864 138.276,81.727 Z"
         transform="translate(88.717,53)"
         id="path644"
         style="fill:url(#n);fill-rule:nonzero;stroke:#ffffff;stroke-width:0.5;stroke-linecap:round"
         inkscape:connector-curvature="0" />
      <path
         d="m 159.152,141.57 40.186,22.24 m 33.986,-18.6 -33.634,18.6 m -40.274,-14.081 40.186,22.197 m 33.986,-18.6 -33.679,18.6 m -40.493,-13.775 40.186,22.198 m 33.986,-18.557 -33.678,18.558 m -40.494,-14.741 40.186,22.197 m 33.986,-18.6 -33.679,18.6"
         id="path646"
         inkscape:connector-curvature="0"
         style="opacity:0.6;stroke:#ffffff;stroke-linecap:round;stroke-linejoin:round" />
      <path
         d="M 34.734,114.1 75.096,90.85 40.494,70.847 0.308,93.877 Z"
         transform="translate(88.717,53)"
         id="path648"
         style="fill:url(#o);fill-rule:nonzero;stroke:#ffffff;stroke-width:0.5"
         inkscape:connector-curvature="0" />
      <path
         d="M 0.747,134.762 34.646,154.283 34.734,114.057 0.747,94.184 Z"
         transform="translate(88.717,53)"
         id="path650"
         style="fill:url(#p);fill-rule:nonzero;stroke:#ffffff;stroke-width:0.5;stroke-linecap:round"
         inkscape:connector-curvature="0" />
      <path
         d="M 34.646,154.283 74.788,131.077 75.096,90.894 34.734,114.057 Z"
         transform="translate(88.717,53)"
         id="path652"
         style="fill:url(#q);fill-rule:nonzero;stroke:#ffffff;stroke-width:0.5;stroke-linecap:round"
         inkscape:connector-curvature="0" />
      <path
         d="m 158.14,152.975 -29.105,16.801 m 29.062,-11.01 -29.107,16.844 m 29.107,-11.405 -29.106,16.802 m 28.359,-10.924 -29.107,16.802 m 28.359,-10.967 -29.106,16.845 m 28.314,-10.967 -29.106,16.802"
         id="path654"
         inkscape:connector-curvature="0"
         style="opacity:0.5;stroke:#25ebee;stroke-linecap:round;stroke-linejoin:round;stroke-dasharray:3, 5" />
      <g
         id="g658"
         style="opacity:0.5;stroke:#25ebee;stroke-linecap:round;stroke-linejoin:round;stroke-dasharray:3, 5">
        <path
           d="m 90.96,155.65 29.105,16.802 m -29.062,-10.967 29.106,16.802 m -29.106,-11.406 29.106,16.845 m -29.106,-11.493 29.106,16.801 m -29.106,-11.142 29.106,16.801 m -29.149,-11.581 29.105,16.845"
           id="path656"
           inkscape:connector-curvature="0" />
      </g>
      <path
         d="M 35.613,109.758 68.325,90.894 40.274,74.664 7.694,93.35 Z"
         transform="translate(88.717,53)"
         id="path660"
         style="fill:url(#r);fill-rule:nonzero;stroke:#ffffff;stroke-width:0.5;stroke-linecap:round"
         inkscape:connector-curvature="0" />
      <g
         id="g682"
         style="fill-rule:nonzero">
        <path
           d="m 217.188,195.878 -1.055,4.43 c -0.088,0.44 -0.615,0.527 -0.835,0.176 l -1.1,-1.799 -1.055,-5.395 -1.319,-0.878 0.088,1.185 0.132,1.447 0.352,4.036 c 0,0 1.407,4.738 3.254,5.089 2.11,0.438 3.429,-2.5 3.297,-3.992 -0.132,-1.492 0.616,-6.624 0.616,-6.624 h -1.627 l -0.748,2.325"
           id="path662"
           inkscape:connector-curvature="0"
           style="fill:#f6c6b0" />
        <path
           d="m 212.352,188.025 12.575,-6.492 v 11.8 l -12.575,6.932 z"
           id="path664"
           inkscape:connector-curvature="0"
           style="fill:#e6e6e6" />
        <path
           d="m 218.947,179.603 c 0,0 -0.308,1.842 -0.66,3.421 -0.307,1.58 0.66,3.642 0.66,3.642 0,0 0.967,0.394 1.847,0.526 v 1.93 h 3.297 l 0.88,-4.738 c -0.044,0 -1.979,-7.018 -6.024,-4.781 z"
           id="path666"
           inkscape:connector-curvature="0"
           style="fill:#f7c6b6" />
        <path
           d="m 221.453,186.27 c 0,0 4.001,1.712 4.66,-1.579 0.66,-3.29 2.155,-9.475 -3.297,-9.256 -5.452,0.22 -4.484,3.817 -4.484,3.817 0,0 1.143,0.526 1.45,1.798 0.308,1.273 0.396,2.457 0.396,2.457 0,0 1.143,-2.325 1.759,-1.491 0.571,0.833 -0.088,3.07 -0.088,3.07 l -0.396,1.185 z"
           id="path668"
           inkscape:connector-curvature="0"
           style="fill:#ef663a" />
        <path
           d="m 229.367,195.615 c 0,0 -1.319,9.08 -2.55,9.914 -1.23,0.833 0.484,-1.272 0.484,-1.272 l 0.571,-10.441 z"
           id="path670"
           inkscape:connector-curvature="0"
           style="fill:#f6c6b0" />
        <path
           d="m 223.168,228.647 -2.77,-0.263 c 0,0 -0.572,1.842 0.747,2.413 1.275,0.57 5.189,2.5 4.925,0.79 -0.264,-1.712 -1.715,-2.808 -2.902,-2.94 z"
           id="path672"
           inkscape:connector-curvature="0"
           style="fill:#675f72" />
        <path
           d="m 15.432,35.314 v 0.35 L 14.29,55.187 c 0,0 -2.022,0.482 -2.638,0 -0.66,-0.483 -0.571,-21.1 -0.571,-21.1 l 4.352,1.228 z"
           transform="translate(211.824,175.391)"
           id="path674"
           style="fill:url(#s)"
           inkscape:connector-curvature="0" />
        <path
           d="m 217.232,231.148 c 0,0 -2.506,-1.01 -2.638,0 -0.132,1.009 0.264,1.93 0.264,1.93 0,0 2.462,1.71 3.693,1.579 1.231,-0.132 2.375,-0.921 1.407,-1.535 -0.967,-0.702 -0.615,-1.536 -2.726,-1.974 z"
           id="path676"
           inkscape:connector-curvature="0"
           style="fill:#656273" />
        <path
           d="m 10.244,34.743 v 0.395 L 8.09,58.3 c 0,0 -1.803,0.395 -2.462,-0.219 -0.66,-0.614 0.264,-24.785 0.264,-24.785 z"
           transform="translate(211.824,175.391)"
           id="path678"
           style="fill:url(#t)"
           inkscape:connector-curvature="0" />
        <path
           d="m 12.53,12.327 c 0,0 5.145,-0.877 5.189,7.94 h -1.143 l -0.44,14.564 c 0,0 -3.034,2.72 -7.43,1.58 C 7.079,35.971 5.232,35.27 5.232,35.27 L 7.3,23.25 c 0,0 -2.77,0.263 -3.386,-0.22 0,0 -0.132,-4.342 0.264,-5.702 0.22,-0.79 1.539,-5.922 4.836,-4.782 3.254,1.185 3.518,-0.22 3.518,-0.22 z"
           transform="translate(211.824,175.391)"
           id="path680"
           style="fill:url(#u)"
           inkscape:connector-curvature="0" />
      </g>
    </g>
    <g
       transform="matrix(0.85362955,0,0,0.85362955,24.240643,17.242241)"
       id="g694"
       style="fill:none;fill-rule:evenodd">
      <path
         d="m 23.52,8.38 c 0,0 7.914,0.087 20.68,-8.16 l 5.07,2.588 c 0.045,0.044 0.045,0.087 0,0.131 -0.96,0.79 -9.573,7.327 -21.552,9.564 0,0 -12.81,13.556 -21.204,15.443 L 0.35,23.822 C 0.306,23.734 15.258,18.865 23.52,8.379 Z"
         transform="translate(38.878,1)"
         id="path686"
         style="fill:url(#v);fill-rule:nonzero;stroke:#dfbbec;stroke-width:0.5"
         inkscape:connector-curvature="0" />
      <path
         d="m 0.219,23.822 c -0.132,1.623 -0.175,30.753 16.263,39.308 0,0 -12.635,-13.907 -9.4,-34.614 0,-0.044 0,-0.044 -0.043,-0.088 0.043,0 -6.82,-4.606 -6.82,-4.606 z"
         transform="translate(38.878,1)"
         id="path688"
         style="fill:url(#w);fill-rule:nonzero;stroke:#dfbbec;stroke-width:0.5"
         inkscape:connector-curvature="0" />
      <path
         d="m 6.47,27.902 c 0,0 13.51,-4.87 21.204,-16.452 0,0 5.946,0.746 14.558,-4.255 2.668,-1.536 7.126,-4.125 7.126,-4.125 0,0 2.099,16.1 -3.279,32.201 -5.42,16.1 -12.372,25.007 -12.372,25.007 0,0 -3.978,5.615 -5.596,7.282 C 27.193,68.482 8.088,64.182 6.908,45.888 6.208,35.271 6.47,27.901 6.47,27.901 Z"
         transform="translate(38.878,1)"
         id="path690"
         style="fill:url(#x);fill-rule:nonzero;stroke:#dfbbec;stroke-width:0.5"
         inkscape:connector-curvature="0" />
      <path
         d="m 63.36,49.653 -6.295,-4.036 0.175,-0.263 5.99,3.816 13.29,-22.462 -4.154,7.678 z"
         id="path692"
         inkscape:connector-curvature="0"
         style="stroke:#25ebee;stroke-width:1.5;stroke-linecap:round;stroke-linejoin:round" />
    </g>
    <g
       transform="matrix(0.85362955,0,0,0.85362955,24.240643,17.242241)"
       id="g714"
       style="fill:none;fill-rule:evenodd">
      <path
         d="M 53.132,76.196 48.4,78.856 40.977,32.598 53.132,25.325 Z"
         transform="translate(243.219,10)"
         id="path696"
         style="fill:url(#y);fill-rule:nonzero;stroke:#a57dca;stroke-width:0.5"
         inkscape:connector-curvature="0" />
      <path
         d="m 35.421,82.183 4.428,-2.616 0.043,-0.045 v -5.455 c 0,-0.044 -0.043,-0.044 -0.087,-0.044 l -4.427,2.616 -0.044,0.045 v 5.455 c 0.044,0.044 0.044,0.089 0.087,0.044 z"
         transform="translate(243.219,10)"
         id="path698"
         style="fill:url(#z);fill-rule:nonzero;stroke:#a57dca;stroke-width:0.5"
         inkscape:connector-curvature="0" />
      <path
         d="m 39.805,73.934 -23.31,-13.75 h -0.087 l -4.558,2.662 c -0.043,0.044 -0.043,0.089 0,0.133 l 23.31,13.749 h 0.088 l 4.557,-2.661 c 0.087,-0.044 0.087,-0.133 0,-0.133 z"
         transform="translate(243.219,10)"
         id="path700"
         style="fill:url(#A);fill-rule:nonzero;stroke:#dfbbec;stroke-width:0.5"
         inkscape:connector-curvature="0" />
      <path
         d="M 25.828,76.772 11.764,68.48 c -0.044,0 -0.044,-0.045 -0.044,-0.045 v -5.366 c 0,-0.045 0.044,-0.089 0.13,-0.045 l 9.16,5.411 c 0.043,0.045 0.13,0 0.13,-0.044 v -5.278 c 0,-0.044 0.043,-0.089 0.13,-0.044 l 4.558,2.66 c 0.043,0 0.043,0.045 0.043,0.045 v 5.411 c 0,0.044 0,0.044 0.044,0.044 l 9.333,5.544 c 0.043,0 0.043,0.045 0.043,0.045 v 5.366 c 0,0.045 -0.043,0.089 -0.13,0.045 l -9.333,-5.456 z"
         transform="translate(243.219,10)"
         id="path702"
         style="fill:url(#B);fill-rule:nonzero"
         inkscape:connector-curvature="0" />
      <path
         d="M 25.871,71.362 30.342,68.7 v -5.544 l -4.47,2.662 z"
         transform="translate(243.219,10)"
         id="path704"
         style="fill:url(#C);fill-rule:nonzero"
         inkscape:connector-curvature="0" />
      <path
         d="M 40.934,32.598 5.122,2.617 9.202,0.222 53.132,25.413 Z"
         transform="translate(243.219,10)"
         id="path706"
         style="fill:url(#D);fill-rule:nonzero;stroke:#dfbbec;stroke-width:0.5"
         inkscape:connector-curvature="0" />
      <path
         d="M 48.4,78.857 5.122,53.355 V 2.617 L 48.4,28.163 Z"
         transform="translate(243.219,10)"
         id="path708"
         style="fill:url(#E);fill-rule:nonzero;stroke:#dfbbec;stroke-width:0.5"
         inkscape:connector-curvature="0" />
      <path
         d="M 53.436,105.911 0.043,74.421 v -62.58 l 53.393,31.49 z"
         transform="translate(243.219,10)"
         id="path710"
         style="opacity:0.43999999;fill:url(#F);fill-rule:nonzero"
         inkscape:connector-curvature="0" />
      <path
         d="m 248.862,59.363 v 14.814 l 14.672,-20.934 1.91,27.764 12.371,-18.007 3.473,7.717 9.81,-6.342"
         id="path712"
         inkscape:connector-curvature="0"
         style="stroke:#25ebee;stroke-width:1.5;stroke-linecap:round;stroke-linejoin:round" />
    </g>
    <g
       transform="matrix(0.85362955,0,0,0.85362955,24.240643,17.242241)"
       id="g732"
       style="fill:none;fill-rule:evenodd">
      <path
         d="m 39.91,78.206 4.752,-2.693 c 2.508,-1.412 4.004,-4.06 4.004,-6.929 V 47.488 c -0.088,-7.37 0,-14.652 -13.244,-21.67 L 19.537,16.374 12.981,12.49 c 0,0 -7.92,-2.118 -11.22,4.37 L 4.4,58.124 39.909,78.204 Z"
         transform="translate(1,144)"
         id="path716"
         style="fill:url(#G);fill-rule:nonzero;stroke:#dfbbec;stroke-width:0.5"
         inkscape:connector-curvature="0" />
      <path
         d="m 35.378,33.586 c 0.572,0.309 1.1,0.706 1.628,1.192 2.816,2.604 4.708,6.973 4.708,10.9 v 27.629 c 0,0.573 -0.044,1.191 -0.132,1.72 -0.616,3.532 -3.124,4.856 -6.116,3.134 C 25.786,72.556 16.061,66.951 6.38,61.346 A 9.582,9.582 0 0 1 3.608,58.875 c -2.244,-2.913 -3.432,-6.09 -3.476,-9.533 -0.044,-9.268 0,-18.492 0,-27.716 0,-2.207 0.572,-3.796 1.672,-4.767 1.232,-1.059 2.816,-1.015 4.62,0.044 4.84,2.78 9.637,5.605 14.477,8.386 4.796,2.736 9.637,5.517 14.477,8.297 z m -12.409,17.3 c 0,-0.132 0.044,-0.22 0.132,-0.264 1.1,-0.31 1.76,-1.236 1.936,-2.913 0.264,-2.78 -1.188,-6.179 -3.212,-7.944 -1.848,-1.633 -3.652,-1.545 -4.576,0.132 -1.012,1.854 -0.484,5.164 1.188,7.768 0.044,0.044 0.088,0.132 0.132,0.176 0.264,0.265 0.264,0.53 0.264,0.883 v 5.782 c 0,1.412 0.66,2.912 1.716,3.795 1.1,0.927 2.244,0.486 2.42,-0.883 0.044,-0.176 0.044,-0.397 0.044,-0.617 v -2.87 c -0.044,-0.97 -0.044,-2.03 -0.044,-3.044 z"
         transform="translate(1,144)"
         id="path718"
         style="fill:url(#H);fill-rule:nonzero;stroke:#dfbbec;stroke-width:0.5"
         inkscape:connector-curvature="0" />
      <path
         d="m 23.97,195.151 c 0,-0.132 0.043,-0.22 0.131,-0.264 1.1,-0.31 1.76,-1.236 1.936,-2.913 0.264,-2.78 -1.188,-6.179 -3.212,-7.944 -1.848,-1.633 -3.652,-1.545 -4.576,0.132 -1.012,1.854 -0.484,5.164 1.188,7.768 0.044,0.044 0.088,0.132 0.132,0.176 0.264,0.265 0.264,0.53 0.264,0.883 v 5.781 c 0,1.413 0.66,2.913 1.716,3.796 1.1,0.927 2.244,0.485 2.42,-0.883 0.044,-0.176 0.044,-0.397 0.044,-0.618 v -2.868 c -0.044,-1.015 -0.044,-2.03 -0.044,-3.046 z"
         id="path720"
         inkscape:connector-curvature="0"
         style="stroke:#25ebee;stroke-width:1.5" />
      <path
         d="m 38.194,35.881 6.116,-3.663 c 0,0 0,-31.512 -25.74,-31.512 l 6.468,7.768 9.857,14.917 3.124,12.402 c 0.044,0.088 0.132,0.132 0.176,0.088 z"
         transform="translate(1,144)"
         id="path722"
         style="fill:url(#I);fill-rule:nonzero;stroke:#dfbbec;stroke-width:0.5"
         inkscape:connector-curvature="0" />
      <g
         id="g728"
         style="fill-rule:nonzero;stroke:#dfbbec;stroke-width:0.5">
        <path
           d="m 11.66,2.736 c 0,0 -5.015,-2.118 -3.475,7.504 l -7.04,3.928 c 0,0 -2.421,-11.52 1.495,-13.594 3.872,-2.03 9.02,2.162 9.02,2.162 z"
           transform="translate(15.52,151.944)"
           id="path724"
           style="fill:url(#J)"
           inkscape:connector-curvature="0" />
        <path
           d="M 8.096,10.372 1.1,14.167"
           transform="translate(15.52,151.944)"
           id="path726"
           style="fill:url(#K)"
           inkscape:connector-curvature="0" />
      </g>
      <path
         d="M 23.233,1.721 C 22.881,1.545 22.529,1.412 22.177,1.236 20.593,0.53 19.097,0.22 17.645,0.265 c -1.716,0.044 -3.212,0.662 -4.4,1.898 -1.1,1.059 -1.892,2.515 -2.508,4.236 -0.616,1.81 -1.013,3.84 -1.189,6.047 -0.176,1.986 -0.132,4.06 -0.132,6.179 l 0.044,0.044 c 2.069,1.191 4.137,2.339 6.249,3.53 0,-1.897 0,-3.265 0.044,-4.413 0.132,-2.471 0.484,-4.678 1.408,-6.355 1.1,-1.986 2.772,-2.604 5.016,-1.766 1.452,0.53 2.86,1.369 4.268,2.648 1.848,1.678 3.256,3.928 4.269,6.665 0.704,1.853 1.1,3.707 1.32,5.56 0.22,1.678 0.308,3.266 0.308,4.811 v 2.56 c 2.244,1.28 4.048,2.383 5.456,3.928 0.044,0.088 0.176,0.044 0.22,-0.044 0.176,-0.486 0.616,-1.457 0.528,-4.414 a 42.812,42.812 0 0 0 -1.98,-12.048 c -0.792,-2.472 -1.804,-4.9 -3.124,-7.15 A 29.817,29.817 0 0 0 28.602,5.826 24.802,24.802 0 0 0 24.949,2.825 C 24.861,2.78 24.817,2.692 24.729,2.648 A 19.89,19.89 0 0 0 23.233,1.721 Z"
         transform="translate(1,144)"
         id="path730"
         style="fill:url(#L);fill-rule:nonzero;stroke:#dfbbec;stroke-width:0.5"
         inkscape:connector-curvature="0" />
    </g>
  </g>
</svg>
